<svg xmlns="http://www.w3.org/2000/svg" width="353" height="63" viewBox="0 0 353 63" fill="none"><path d="M228.171 54.2129C227.855 54.2153 227.549 54.3234 227.302 54.52C227.054 54.7166 226.88 54.9904 226.806 55.2976C226.733 55.6049 226.764 55.9279 226.896 56.2153C227.027 56.5026 227.251 56.7377 227.531 56.8829V58.5613H228.705V56.9358C229.008 56.8116 229.259 56.5861 229.414 56.2978C229.569 56.0095 229.62 55.6763 229.557 55.355C229.494 55.0336 229.321 54.7441 229.068 54.5358C228.816 54.3276 228.499 54.2134 228.171 54.2129Z" fill="white"></path><path d="M232.816 50.9321V48.4205C232.841 47.1482 232.361 45.9177 231.481 44.9983C230.601 44.0789 229.393 43.5454 228.121 43.5146C226.849 43.5454 225.641 44.0789 224.761 44.9983C223.881 45.9177 223.401 47.1482 223.426 48.4205V50.9321H221.666V60.9081C221.666 61.2194 221.79 61.5179 222.01 61.738C222.23 61.9581 222.528 62.0818 222.84 62.0818H233.403C233.714 62.0818 234.012 61.9581 234.232 61.738C234.452 61.5179 234.576 61.2194 234.576 60.9081V50.9321H232.816ZM224.6 48.4205C224.575 47.4594 224.931 46.5274 225.591 45.8281C226.25 45.1287 227.16 44.719 228.121 44.6883C229.082 44.719 229.992 45.1287 230.651 45.8281C231.311 46.5274 231.667 47.4594 231.642 48.4205V50.9321H224.6V48.4205ZM222.84 60.9081V52.1058H233.403V60.9081H222.84Z" fill="white"></path><path d="M93.2171 52.0976C94.0611 52.0976 94.7803 51.7967 95.2573 51.2389L94.6409 50.6518C94.2666 51.0628 93.8042 51.2609 93.2685 51.2609C92.2043 51.2609 91.4337 50.5123 91.4337 49.4555C91.4337 48.3987 92.2043 47.6501 93.2685 47.6501C93.8042 47.6501 94.2666 47.8483 94.6409 48.2519L95.2573 47.6721C94.7803 47.1144 94.0611 46.8135 93.2244 46.8135C91.6465 46.8135 90.4723 47.9217 90.4723 49.4555C90.4723 50.9894 91.6465 52.0976 93.2171 52.0976Z" fill="white"></path><path d="M97.7015 52.0756C98.9198 52.0756 99.7931 51.2389 99.7931 50.0647C99.7931 48.8904 98.9198 48.0611 97.7015 48.0611C96.4979 48.0611 95.6172 48.8904 95.6172 50.0647C95.6172 51.2389 96.4979 52.0756 97.7015 52.0756ZM97.7015 51.2903C97.041 51.2903 96.5419 50.8132 96.5419 50.0647C96.5419 49.3161 97.041 48.839 97.7015 48.839C98.3693 48.839 98.8684 49.3161 98.8684 50.0647C98.8684 50.8132 98.3693 51.2903 97.7015 51.2903Z" fill="white"></path><path d="M105.617 48.0611C104.993 48.0611 104.465 48.3106 104.149 48.7143C103.878 48.2739 103.4 48.0611 102.828 48.0611C102.292 48.0611 101.837 48.2519 101.544 48.6042V48.1051H100.67V52.0242H101.588V50.0353C101.588 49.2574 101.999 48.8611 102.608 48.8611C103.166 48.8611 103.489 49.1987 103.489 49.8959V52.0242H104.406V50.0353C104.406 49.2574 104.824 48.8611 105.426 48.8611C105.984 48.8611 106.307 49.1987 106.307 49.8959V52.0242H107.224V49.7784C107.224 48.5969 106.564 48.0611 105.617 48.0611Z" fill="white"></path><path d="M110.569 48.0611C110.033 48.0611 109.578 48.2446 109.27 48.6189V48.1051H108.396V53.448H109.314V51.5472C109.629 51.9068 110.07 52.0756 110.569 52.0756C111.714 52.0756 112.558 51.2829 112.558 50.0647C112.558 48.8537 111.714 48.0611 110.569 48.0611ZM110.466 51.2903C109.805 51.2903 109.299 50.8132 109.299 50.0647C109.299 49.3161 109.805 48.839 110.466 48.839C111.127 48.839 111.626 49.3161 111.626 50.0647C111.626 50.8132 111.127 51.2903 110.466 51.2903Z" fill="white"></path><path d="M114.301 48.6776V48.1051H113.428V52.0242H114.345V50.1234C114.345 49.3234 114.785 48.9124 115.483 48.9124C115.549 48.9124 115.615 48.9198 115.695 48.9345V48.0611C115.042 48.0611 114.565 48.2666 114.301 48.6776Z" fill="white"></path><path d="M117.949 48.0611C117.318 48.0611 116.709 48.2226 116.291 48.5455L116.65 49.2133C116.944 48.9712 117.399 48.8244 117.839 48.8244C118.492 48.8244 118.815 49.1399 118.815 49.6757V49.7344H117.803C116.614 49.7344 116.173 50.2481 116.173 50.9013C116.173 51.5838 116.738 52.0756 117.634 52.0756C118.221 52.0756 118.646 51.8847 118.867 51.5472V52.0242H119.733V49.7271C119.733 48.5969 119.08 48.0611 117.949 48.0611ZM117.825 51.4077C117.355 51.4077 117.076 51.1949 117.076 50.8646C117.076 50.5784 117.245 50.3436 117.869 50.3436H118.815V50.7986C118.661 51.2022 118.272 51.4077 117.825 51.4077Z" fill="white"></path><path d="M92.4318 59.0603C93.8409 59.0603 94.5088 58.3557 94.5088 57.5337C94.5088 55.6476 91.4631 56.3595 91.4631 55.266C91.4631 54.877 91.786 54.5688 92.5786 54.5688C93.0263 54.5688 93.5327 54.7009 93.995 54.9724L94.2959 54.2312C93.8483 53.9376 93.2024 53.7761 92.5859 53.7761C91.1768 53.7761 90.5163 54.4807 90.5163 55.31C90.5163 57.2182 93.5694 56.4916 93.5694 57.5998C93.5694 57.9814 93.2318 58.2676 92.4318 58.2676C91.8007 58.2676 91.1475 58.0328 90.7365 57.7025L90.4062 58.4438C90.8319 58.8107 91.6319 59.0603 92.4318 59.0603Z" fill="white"></path><path d="M99.0509 57.0494C99.0509 55.8237 98.2143 55.0238 97.0694 55.0238C95.9025 55.0238 95.0438 55.8604 95.0438 57.0273C95.0438 58.1942 95.8952 59.0382 97.2088 59.0382C97.884 59.0382 98.4345 58.8181 98.7867 58.3997L98.295 57.8346C98.0161 58.1209 97.6712 58.2603 97.2309 58.2603C96.5483 58.2603 96.0713 57.8933 95.9612 57.3209H99.0363C99.0436 57.2328 99.0509 57.1227 99.0509 57.0494ZM97.0694 55.7577C97.6712 55.7577 98.1042 56.1467 98.1776 56.7118H95.9539C96.0419 56.1393 96.4749 55.7577 97.0694 55.7577Z" fill="white"></path><path d="M102.948 55.0678V55.5889C102.626 55.1999 102.141 55.0238 101.591 55.0238C100.468 55.0238 99.6092 55.7724 99.6092 56.9099C99.6092 58.0475 100.468 58.8107 101.591 58.8107C102.119 58.8107 102.582 58.6419 102.904 58.2897V58.4951C102.904 59.2878 102.523 59.6841 101.657 59.6841C101.114 59.6841 100.556 59.5006 100.211 59.2144L99.8 59.9042C100.248 60.2712 100.974 60.462 101.708 60.462C103.081 60.462 103.822 59.8162 103.822 58.3924V55.0678H102.948ZM101.73 58.0328C101.033 58.0328 100.534 57.5778 100.534 56.9099C100.534 56.2494 101.033 55.8017 101.73 55.8017C102.42 55.8017 102.919 56.2494 102.919 56.9099C102.919 57.5778 102.42 58.0328 101.73 58.0328Z" fill="white"></path><path d="M107.905 55.0678V57.0494C107.905 57.8346 107.472 58.2309 106.833 58.2309C106.254 58.2309 105.916 57.8933 105.916 57.1815V55.0678H104.999V57.3062C104.999 58.4878 105.681 59.0382 106.687 59.0382C107.193 59.0382 107.655 58.8474 107.949 58.4878V58.9869H108.822V55.0678H107.905Z" fill="white"></path><path d="M110.897 55.6403V55.0678H110.023V58.9869H110.941V57.0861C110.941 56.2861 111.381 55.8751 112.078 55.8751C112.144 55.8751 112.21 55.8825 112.291 55.8971V55.0238C111.638 55.0238 111.161 55.2293 110.897 55.6403Z" fill="white"></path><path d="M114.545 55.0238C113.914 55.0238 113.305 55.1852 112.886 55.5082L113.246 56.176C113.54 55.9338 113.995 55.787 114.435 55.787C115.088 55.787 115.411 56.1026 115.411 56.6384V56.6971H114.398C113.209 56.6971 112.769 57.2108 112.769 57.864C112.769 58.5465 113.334 59.0382 114.229 59.0382C114.816 59.0382 115.242 58.8474 115.462 58.5098V58.9869H116.328V56.6897C116.328 55.5595 115.675 55.0238 114.545 55.0238ZM114.42 58.3704C113.95 58.3704 113.672 58.1575 113.672 57.8273C113.672 57.5411 113.84 57.3062 114.464 57.3062H115.411V57.7612C115.257 58.1649 114.868 58.3704 114.42 58.3704Z" fill="white"></path><path d="M166.701 52.0975C168.11 52.0975 168.778 51.393 168.778 50.571C168.778 48.6849 165.733 49.3968 165.733 48.3032C165.733 47.9143 166.056 47.606 166.848 47.606C167.296 47.606 167.802 47.7381 168.265 48.0097L168.565 47.2684C168.118 46.9749 167.472 46.8134 166.855 46.8134C165.446 46.8134 164.786 47.518 164.786 48.3473C164.786 50.2554 167.839 49.5289 167.839 50.6371C167.839 51.0187 167.501 51.3049 166.701 51.3049C166.07 51.3049 165.417 51.0701 165.006 50.7398L164.676 51.481C165.101 51.848 165.901 52.0975 166.701 52.0975Z" fill="white"></path><path d="M171.133 48.0611C170.502 48.0611 169.893 48.2225 169.475 48.5454L169.834 49.2133C170.128 48.9711 170.583 48.8243 171.023 48.8243C171.677 48.8243 171.999 49.1399 171.999 49.6756V49.7344H170.987C169.798 49.7344 169.357 50.2481 169.357 50.9013C169.357 51.5838 169.923 52.0755 170.818 52.0755C171.405 52.0755 171.831 51.8847 172.051 51.5471V52.0241H172.917V49.727C172.917 48.5968 172.264 48.0611 171.133 48.0611ZM171.009 51.4077C170.539 51.4077 170.26 51.1948 170.26 50.8646C170.26 50.5783 170.429 50.3435 171.053 50.3435H171.999V50.7985C171.845 51.2022 171.456 51.4077 171.009 51.4077Z" fill="white"></path><path d="M176.193 51.1581C176.054 51.2682 175.87 51.3196 175.679 51.3196C175.327 51.3196 175.136 51.1141 175.136 50.7325V48.8683H176.186V48.1344H175.136V47.2391H174.219V48.1344H173.573V48.8683H174.219V50.7545C174.219 51.6205 174.711 52.0755 175.569 52.0755C175.9 52.0755 176.23 51.9874 176.45 51.8113L176.193 51.1581Z" fill="white"></path><path d="M177.667 47.4593C178.012 47.4593 178.254 47.2097 178.254 46.8868C178.254 46.5859 178.005 46.3584 177.667 46.3584C177.329 46.3584 177.08 46.6006 177.08 46.9088C177.08 47.2171 177.329 47.4593 177.667 47.4593ZM177.205 52.0241H178.122V48.1051H177.205V52.0241Z" fill="white"></path><path d="M180.537 52.0755C181.638 52.0755 182.313 51.5985 182.313 50.8646C182.313 49.3307 179.891 50.0353 179.891 49.2426C179.891 48.9858 180.155 48.8023 180.713 48.8023C181.087 48.8023 181.462 48.8757 181.836 49.0959L182.188 48.3986C181.836 48.1858 181.242 48.0611 180.721 48.0611C179.664 48.0611 178.996 48.5454 178.996 49.2867C178.996 50.8499 181.418 50.1453 181.418 50.8939C181.418 51.1655 181.176 51.3269 180.596 51.3269C180.104 51.3269 179.576 51.1655 179.231 50.938L178.878 51.6352C179.231 51.8847 179.884 52.0755 180.537 52.0755Z" fill="white"></path><path d="M184.696 47.2684C184.886 47.2684 185.063 47.3345 185.202 47.4299L185.459 46.74C185.253 46.5932 184.945 46.5272 184.63 46.5272C183.72 46.5272 183.228 47.0629 183.228 47.8849V48.1344H182.582V48.8683H183.228V52.0241H184.145V48.8683H185.195V48.1344H184.116V47.8996C184.116 47.4813 184.314 47.2684 184.696 47.2684Z" fill="white"></path><path d="M187.238 48.0611C186.607 48.0611 185.997 48.2225 185.579 48.5454L185.939 49.2133C186.232 48.9711 186.687 48.8243 187.128 48.8243C187.781 48.8243 188.104 49.1399 188.104 49.6756V49.7344H187.091C185.902 49.7344 185.462 50.2481 185.462 50.9013C185.462 51.5838 186.027 52.0755 186.922 52.0755C187.509 52.0755 187.935 51.8847 188.155 51.5471V52.0241H189.021V49.727C189.021 48.5968 188.368 48.0611 187.238 48.0611ZM187.113 51.4077C186.643 51.4077 186.364 51.1948 186.364 50.8646C186.364 50.5783 186.533 50.3435 187.157 50.3435H188.104V50.7985C187.95 51.2022 187.561 51.4077 187.113 51.4077Z" fill="white"></path><path d="M192.025 51.2902C191.35 51.2902 190.836 50.8279 190.836 50.0646C190.836 49.3087 191.35 48.839 192.025 48.839C192.414 48.839 192.766 49.0078 193.001 49.3821L193.706 48.9711C193.405 48.3766 192.796 48.0611 192.032 48.0611C190.792 48.0611 189.911 48.8904 189.911 50.0646C189.911 51.0994 190.594 51.87 191.599 52.0388L191.416 52.7213H191.643C191.922 52.7213 192.032 52.8241 192.032 52.9635C192.032 53.125 191.915 53.2277 191.643 53.2277C191.46 53.2277 191.298 53.191 191.144 53.1103L190.976 53.5433C191.159 53.6461 191.387 53.6974 191.651 53.6974C192.253 53.6974 192.649 53.4259 192.649 53.0002C192.649 52.6846 192.443 52.4351 192.01 52.3837L192.091 52.0755C192.825 52.0608 193.412 51.7306 193.706 51.1581L193.001 50.7471C192.766 51.1214 192.414 51.2902 192.025 51.2902Z" fill="white"></path><path d="M195.607 47.085C195.871 47.085 196.121 47.5693 196.605 47.5693C197.075 47.5693 197.383 47.1804 197.398 46.6079H196.906C196.891 46.8721 196.752 47.0262 196.546 47.0262C196.282 47.0262 196.033 46.5419 195.548 46.5419C195.078 46.5419 194.77 46.9235 194.756 47.5253H195.247C195.262 47.2464 195.401 47.085 195.607 47.085ZM195.996 48.0611C195.365 48.0611 194.756 48.2225 194.337 48.5454L194.697 49.2133C194.99 48.9711 195.445 48.8243 195.886 48.8243C196.539 48.8243 196.862 49.1399 196.862 49.6756V49.7344H195.849C194.66 49.7344 194.22 50.2481 194.22 50.9013C194.22 51.5838 194.785 52.0755 195.68 52.0755C196.267 52.0755 196.693 51.8847 196.913 51.5471V52.0241H197.779V49.727C197.779 48.5968 197.126 48.0611 195.996 48.0611ZM195.871 51.4077C195.401 51.4077 195.122 51.1948 195.122 50.8646C195.122 50.5783 195.291 50.3435 195.915 50.3435H196.862V50.7985C196.708 51.2022 196.319 51.4077 195.871 51.4077Z" fill="white"></path><path d="M200.754 52.0755C201.972 52.0755 202.845 51.2389 202.845 50.0646C202.845 48.8904 201.972 48.0611 200.754 48.0611C199.55 48.0611 198.669 48.8904 198.669 50.0646C198.669 51.2389 199.55 52.0755 200.754 52.0755ZM200.754 51.2902C200.093 51.2902 199.594 50.8132 199.594 50.0646C199.594 49.316 200.093 48.839 200.754 48.839C201.422 48.839 201.921 49.316 201.921 50.0646C201.921 50.8132 201.422 51.2902 200.754 51.2902Z" fill="white"></path><path d="M168.617 57.9593C168.287 58.1502 167.927 58.2235 167.56 58.2235C166.474 58.2235 165.703 57.4603 165.703 56.4181C165.703 55.354 166.474 54.6127 167.567 54.6127C168.118 54.6127 168.58 54.7962 168.984 55.1999L169.586 54.6127C169.101 54.0623 168.382 53.7761 167.523 53.7761C165.916 53.7761 164.742 54.8843 164.742 56.4181C164.742 57.952 165.916 59.0602 167.509 59.0602C168.235 59.0602 168.984 58.84 169.52 58.407V56.3594H168.617V57.9593Z" fill="white"></path><path d="M172.187 55.0237C171.556 55.0237 170.947 55.1852 170.528 55.5081L170.888 56.176C171.182 55.9338 171.637 55.787 172.077 55.787C172.73 55.787 173.053 56.1026 173.053 56.6383V56.697H172.04C170.851 56.697 170.411 57.2108 170.411 57.8639C170.411 58.5465 170.976 59.0382 171.871 59.0382C172.459 59.0382 172.884 58.8474 173.104 58.5098V58.9868H173.97V56.6897C173.97 55.5595 173.317 55.0237 172.187 55.0237ZM172.062 58.3703C171.593 58.3703 171.314 58.1575 171.314 57.8272C171.314 57.541 171.482 57.3062 172.106 57.3062H173.053V57.7612C172.899 58.1648 172.51 58.3703 172.062 58.3703Z" fill="white"></path><path d="M176.021 55.6402V55.0678H175.148V58.9868H176.065V57.086C176.065 56.286 176.505 55.8751 177.203 55.8751C177.269 55.8751 177.335 55.8824 177.415 55.8971V55.0237C176.762 55.0237 176.285 55.2292 176.021 55.6402Z" fill="white"></path><path d="M179.669 55.0237C179.038 55.0237 178.429 55.1852 178.011 55.5081L178.37 56.176C178.664 55.9338 179.119 55.787 179.559 55.787C180.212 55.787 180.535 56.1026 180.535 56.6383V56.697H179.523C178.334 56.697 177.893 57.2108 177.893 57.8639C177.893 58.5465 178.458 59.0382 179.354 59.0382C179.941 59.0382 180.367 58.8474 180.587 58.5098V58.9868H181.453V56.6897C181.453 55.5595 180.8 55.0237 179.669 55.0237ZM179.545 58.3703C179.075 58.3703 178.796 58.1575 178.796 57.8272C178.796 57.541 178.965 57.3062 179.589 57.3062H180.535V57.7612C180.381 58.1648 179.992 58.3703 179.545 58.3703Z" fill="white"></path><path d="M184.854 55.0237C184.281 55.0237 183.804 55.2145 183.503 55.5742V55.0678H182.63V58.9868H183.547V57.0053C183.547 56.22 183.988 55.8237 184.641 55.8237C185.228 55.8237 185.573 56.1613 185.573 56.8585V58.9868H186.49V56.7411C186.49 55.5595 185.793 55.0237 184.854 55.0237Z" fill="white"></path><path d="M189.753 58.1208C189.614 58.2309 189.43 58.2823 189.239 58.2823C188.887 58.2823 188.696 58.0768 188.696 57.6951V55.831H189.746V55.0971H188.696V54.2018H187.779V55.0971H187.133V55.831H187.779V57.7171C187.779 58.5832 188.271 59.0382 189.129 59.0382C189.46 59.0382 189.79 58.9501 190.01 58.774L189.753 58.1208Z" fill="white"></path><path d="M191.227 54.4219C191.572 54.4219 191.814 54.1724 191.814 53.8495C191.814 53.5486 191.565 53.3211 191.227 53.3211C190.889 53.3211 190.64 53.5633 190.64 53.8715C190.64 54.1797 190.889 54.4219 191.227 54.4219ZM190.765 58.9868H191.682V55.0678H190.765V58.9868Z" fill="white"></path><path d="M195.807 53.5412V55.5521C195.499 55.1925 195.051 55.0237 194.545 55.0237C193.407 55.0237 192.563 55.809 192.563 57.0273C192.563 58.2456 193.407 59.0382 194.545 59.0382C195.08 59.0382 195.535 58.8547 195.844 58.4804V58.9868H196.724V53.5412H195.807ZM194.655 58.2529C193.994 58.2529 193.488 57.7759 193.488 57.0273C193.488 56.2787 193.994 55.8017 194.655 55.8017C195.315 55.8017 195.822 56.2787 195.822 57.0273C195.822 57.7759 195.315 58.2529 194.655 58.2529Z" fill="white"></path><path d="M199.422 55.0237C198.791 55.0237 198.181 55.1852 197.763 55.5081L198.123 56.176C198.416 55.9338 198.871 55.787 199.312 55.787C199.965 55.787 200.288 56.1026 200.288 56.6383V56.697H199.275C198.086 56.697 197.646 57.2108 197.646 57.8639C197.646 58.5465 198.211 59.0382 199.106 59.0382C199.693 59.0382 200.119 58.8474 200.339 58.5098V58.9868H201.205V56.6897C201.205 55.5595 200.552 55.0237 199.422 55.0237ZM199.297 58.3703C198.827 58.3703 198.548 58.1575 198.548 57.8272C198.548 57.541 198.717 57.3062 199.341 57.3062H200.288V57.7612C200.134 58.1648 199.745 58.3703 199.297 58.3703Z" fill="white"></path><path d="M244.586 46.8868H242.473V52.0241H243.427V50.5416H244.586C245.937 50.5416 246.773 49.8444 246.773 48.7142C246.773 47.5767 245.937 46.8868 244.586 46.8868ZM244.542 49.7344H243.427V47.6941H244.542C245.379 47.6941 245.812 48.0684 245.812 48.7142C245.812 49.3601 245.379 49.7344 244.542 49.7344Z" fill="white"></path><path d="M248.476 48.6775V48.1051H247.602V52.0241H248.52V50.1233C248.52 49.3234 248.96 48.9124 249.657 48.9124C249.723 48.9124 249.789 48.9197 249.87 48.9344V48.0611C249.217 48.0611 248.74 48.2665 248.476 48.6775Z" fill="white"></path><path d="M251.111 47.4593C251.455 47.4593 251.698 47.2097 251.698 46.8868C251.698 46.5859 251.448 46.3584 251.111 46.3584C250.773 46.3584 250.523 46.6006 250.523 46.9088C250.523 47.2171 250.773 47.4593 251.111 47.4593ZM250.648 52.0241H251.566V48.1051H250.648V52.0241Z" fill="white"></path><path d="M255.558 48.1051L254.303 51.0113L253.085 48.1051H252.131L253.812 52.0241H254.758L256.439 48.1051H255.558Z" fill="white"></path><path d="M258.388 48.0611C257.757 48.0611 257.148 48.2225 256.729 48.5454L257.089 49.2133C257.382 48.9711 257.837 48.8243 258.278 48.8243C258.931 48.8243 259.254 49.1399 259.254 49.6756V49.7344H258.241C257.052 49.7344 256.612 50.2481 256.612 50.9013C256.612 51.5838 257.177 52.0755 258.072 52.0755C258.659 52.0755 259.085 51.8847 259.305 51.5471V52.0241H260.171V49.727C260.171 48.5968 259.518 48.0611 258.388 48.0611ZM258.263 51.4077C257.793 51.4077 257.514 51.1948 257.514 50.8646C257.514 50.5783 257.683 50.3435 258.307 50.3435H259.254V50.7985C259.1 51.2022 258.711 51.4077 258.263 51.4077Z" fill="white"></path><path d="M263.182 52.0755C263.946 52.0755 264.555 51.7452 264.856 51.1581L264.151 50.7471C263.916 51.1214 263.564 51.2902 263.175 51.2902C262.5 51.2902 261.986 50.8279 261.986 50.0646C261.986 49.3087 262.5 48.839 263.175 48.839C263.564 48.839 263.916 49.0078 264.151 49.3821L264.856 48.9711C264.555 48.3766 263.946 48.0611 263.182 48.0611C261.942 48.0611 261.061 48.8904 261.061 50.0646C261.061 51.2389 261.942 52.0755 263.182 52.0755Z" fill="white"></path><path d="M266.111 47.4593C266.456 47.4593 266.698 47.2097 266.698 46.8868C266.698 46.5859 266.449 46.3584 266.111 46.3584C265.774 46.3584 265.524 46.6006 265.524 46.9088C265.524 47.2171 265.774 47.4593 266.111 47.4593ZM265.649 52.0241H266.566V48.1051H265.649V52.0241Z" fill="white"></path><path d="M270.691 46.5786V48.5895C270.383 48.2299 269.935 48.0611 269.429 48.0611C268.291 48.0611 267.447 48.8463 267.447 50.0646C267.447 51.2829 268.291 52.0755 269.429 52.0755C269.965 52.0755 270.42 51.892 270.728 51.5177V52.0241H271.608V46.5786H270.691ZM269.539 51.2902C268.878 51.2902 268.372 50.8132 268.372 50.0646C268.372 49.316 268.878 48.839 269.539 48.839C270.199 48.839 270.706 49.316 270.706 50.0646C270.706 50.8132 270.199 51.2902 269.539 51.2902Z" fill="white"></path><path d="M274.306 48.0611C273.675 48.0611 273.065 48.2225 272.647 48.5454L273.007 49.2133C273.3 48.9711 273.755 48.8243 274.196 48.8243C274.849 48.8243 275.172 49.1399 275.172 49.6756V49.7344H274.159C272.97 49.7344 272.53 50.2481 272.53 50.9013C272.53 51.5838 273.095 52.0755 273.99 52.0755C274.577 52.0755 275.003 51.8847 275.223 51.5471V52.0241H276.089V49.727C276.089 48.5968 275.436 48.0611 274.306 48.0611ZM274.181 51.4077C273.711 51.4077 273.432 51.1948 273.432 50.8646C273.432 50.5783 273.601 50.3435 274.225 50.3435H275.172V50.7985C275.018 51.2022 274.629 51.4077 274.181 51.4077Z" fill="white"></path><path d="M280.223 46.5786V48.5895C279.915 48.2299 279.467 48.0611 278.961 48.0611C277.823 48.0611 276.979 48.8463 276.979 50.0646C276.979 51.2829 277.823 52.0755 278.961 52.0755C279.497 52.0755 279.952 51.892 280.26 51.5177V52.0241H281.141V46.5786H280.223ZM279.071 51.2902C278.411 51.2902 277.904 50.8132 277.904 50.0646C277.904 49.316 278.411 48.839 279.071 48.839C279.732 48.839 280.238 49.316 280.238 50.0646C280.238 50.8132 279.732 51.2902 279.071 51.2902Z" fill="white"></path><path d="M286.025 50.0866C286.025 48.861 285.188 48.0611 284.043 48.0611C282.876 48.0611 282.018 48.8977 282.018 50.0646C282.018 51.2315 282.869 52.0755 284.183 52.0755C284.858 52.0755 285.408 51.8553 285.761 51.437L285.269 50.8719C284.99 51.1581 284.645 51.2976 284.205 51.2976C283.522 51.2976 283.045 50.9306 282.935 50.3582H286.01C286.018 50.2701 286.025 50.16 286.025 50.0866ZM284.043 48.795C284.645 48.795 285.078 49.1839 285.152 49.749H282.928C283.016 49.1766 283.449 48.795 284.043 48.795Z" fill="white"></path><path d="M244.586 53.8495H242.473V58.9868H243.427V57.5043H244.586C245.937 57.5043 246.773 56.8071 246.773 55.6769C246.773 54.5393 245.937 53.8495 244.586 53.8495ZM244.542 56.697H243.427V54.6568H244.542C245.379 54.6568 245.812 55.0311 245.812 55.6769C245.812 56.3227 245.379 56.697 244.542 56.697Z" fill="white"></path><path d="M248.476 55.6402V55.0678H247.602V58.9868H248.52V57.086C248.52 56.286 248.96 55.8751 249.657 55.8751C249.723 55.8751 249.789 55.8824 249.87 55.8971V55.0237C249.217 55.0237 248.74 55.2292 248.476 55.6402Z" fill="white"></path><path d="M252.374 59.0382C253.592 59.0382 254.465 58.2015 254.465 57.0273C254.465 55.853 253.592 55.0237 252.374 55.0237C251.17 55.0237 250.289 55.853 250.289 57.0273C250.289 58.2015 251.17 59.0382 252.374 59.0382ZM252.374 58.2529C251.713 58.2529 251.214 57.7759 251.214 57.0273C251.214 56.2787 251.713 55.8017 252.374 55.8017C253.042 55.8017 253.541 56.2787 253.541 57.0273C253.541 57.7759 253.042 58.2529 252.374 58.2529Z" fill="white"></path><path d="M257.442 58.1208C257.302 58.2309 257.119 58.2823 256.928 58.2823C256.576 58.2823 256.385 58.0768 256.385 57.6951V55.831H257.434V55.0971H256.385V54.2018H255.467V55.0971H254.821V55.831H255.467V57.7171C255.467 58.5832 255.959 59.0382 256.818 59.0382C257.148 59.0382 257.478 58.9501 257.698 58.774L257.442 58.1208Z" fill="white"></path><path d="M262.008 57.0493C262.008 55.8237 261.172 55.0237 260.027 55.0237C258.86 55.0237 258.001 55.8604 258.001 57.0273C258.001 58.1942 258.852 59.0382 260.166 59.0382C260.841 59.0382 261.392 58.818 261.744 58.3997L261.252 57.8346C260.973 58.1208 260.629 58.2602 260.188 58.2602C259.506 58.2602 259.029 57.8933 258.919 57.3208H261.994C262.001 57.2328 262.008 57.1227 262.008 57.0493ZM260.027 55.7576C260.629 55.7576 261.062 56.1466 261.135 56.7117H258.911C258.999 56.1393 259.432 55.7576 260.027 55.7576Z" fill="white"></path><path d="M265.906 55.0678V55.5888C265.583 55.1999 265.098 55.0237 264.548 55.0237C263.425 55.0237 262.567 55.7723 262.567 56.9099C262.567 58.0474 263.425 58.8107 264.548 58.8107C265.076 58.8107 265.539 58.6419 265.862 58.2896V58.4951C265.862 59.2877 265.48 59.684 264.614 59.684C264.071 59.684 263.513 59.5005 263.168 59.2143L262.757 59.9042C263.205 60.2711 263.932 60.4619 264.665 60.4619C266.038 60.4619 266.779 59.8161 266.779 58.3923V55.0678H265.906ZM264.688 58.0327C263.99 58.0327 263.491 57.5777 263.491 56.9099C263.491 56.2493 263.99 55.8017 264.688 55.8017C265.377 55.8017 265.876 56.2493 265.876 56.9099C265.876 57.5777 265.377 58.0327 264.688 58.0327Z" fill="white"></path><path d="M268.448 54.4219C268.792 54.4219 269.035 54.1724 269.035 53.8495C269.035 53.5486 268.785 53.3211 268.448 53.3211C268.11 53.3211 267.86 53.5633 267.86 53.8715C267.86 54.1797 268.11 54.4219 268.448 54.4219ZM267.985 58.9868H268.903V55.0678H267.985V58.9868Z" fill="white"></path><path d="M273.028 53.5412V55.5521C272.719 55.1925 272.272 55.0237 271.765 55.0237C270.628 55.0237 269.784 55.809 269.784 57.0273C269.784 58.2456 270.628 59.0382 271.765 59.0382C272.301 59.0382 272.756 58.8547 273.064 58.4804V58.9868H273.945V53.5412H273.028ZM271.875 58.2529C271.215 58.2529 270.708 57.7759 270.708 57.0273C270.708 56.2787 271.215 55.8017 271.875 55.8017C272.536 55.8017 273.042 56.2787 273.042 57.0273C273.042 57.7759 272.536 58.2529 271.875 58.2529Z" fill="white"></path><path d="M276.642 55.0237C276.011 55.0237 275.402 55.1852 274.984 55.5081L275.343 56.176C275.637 55.9338 276.092 55.787 276.532 55.787C277.185 55.787 277.508 56.1026 277.508 56.6383V56.697H276.495C275.307 56.697 274.866 57.2108 274.866 57.8639C274.866 58.5465 275.431 59.0382 276.327 59.0382C276.914 59.0382 277.339 58.8474 277.56 58.5098V58.9868H278.426V56.6897C278.426 55.5595 277.772 55.0237 276.642 55.0237ZM276.517 58.3703C276.048 58.3703 275.769 58.1575 275.769 57.8272C275.769 57.541 275.938 57.3062 276.561 57.3062H277.508V57.7612C277.354 58.1648 276.965 58.3703 276.517 58.3703Z" fill="white"></path><path d="M75.5873 43.5146L67.7129 46.1395V54.0139C67.7129 58.3633 71.2379 61.8884 75.5873 61.8884C79.9367 61.8884 83.4618 58.3633 83.4618 54.0139V46.1395L75.5873 43.5146ZM81.9853 54.0139C81.9853 57.5472 79.1206 60.4119 75.5873 60.4119C72.0541 60.4119 69.1894 57.5472 69.1894 54.0139V47.2468L75.5873 44.9911L81.9853 47.2468V54.0139Z" fill="white"></path><path d="M72.8485 51.9447C72.7801 51.8759 72.6988 51.8214 72.6092 51.7842C72.5197 51.7469 72.4236 51.7278 72.3266 51.7278C72.2297 51.7278 72.1336 51.7469 72.0441 51.7842C71.9545 51.8214 71.8732 51.8759 71.8048 51.9447C71.736 52.0131 71.6815 52.0944 71.6443 52.184C71.607 52.2735 71.5879 52.3696 71.5879 52.4665C71.5879 52.5635 71.607 52.6596 71.6443 52.7491C71.6815 52.8387 71.736 52.92 71.8048 52.9884L74.4583 55.642L74.5013 55.685C74.5661 55.7499 74.6429 55.8013 74.7276 55.8364C74.8122 55.8715 74.9029 55.8896 74.9945 55.8896C75.0861 55.8896 75.1769 55.8715 75.2615 55.8364C75.3461 55.8013 75.423 55.7499 75.4877 55.685L80.0709 51.1018C80.1357 51.0371 80.1872 50.9602 80.2223 50.8756C80.2574 50.791 80.2754 50.7003 80.2754 50.6087C80.2754 50.517 80.2574 50.4263 80.2223 50.3417C80.1872 50.2571 80.1357 50.1802 80.0709 50.1155L80.0135 50.0581C79.9487 49.9932 79.8719 49.9418 79.7872 49.9067C79.7026 49.8716 79.6119 49.8535 79.5203 49.8535C79.4287 49.8535 79.338 49.8716 79.2533 49.9067C79.1687 49.9418 79.0918 49.9932 79.0271 50.0581L74.9935 54.0896L72.8485 51.9447Z" fill="white"></path><path fill-rule="evenodd" clip-rule="evenodd" d="M142.622 51.5937C141.585 51.4449 140.637 50.9274 139.952 50.1362C139.266 49.345 138.889 48.3331 138.889 47.2861V46.7059C138.889 45.5849 139.798 44.6751 140.919 44.6751H142.493C142.758 43.9962 143.417 43.5146 144.19 43.5146H152.155C152.522 43.5149 152.88 43.6257 153.182 43.8328C153.485 44.0398 153.718 44.3334 153.851 44.6751H155.425C156.546 44.6751 157.456 45.5849 157.456 46.7059V47.2861C157.456 48.3331 157.078 49.345 156.393 50.1362C155.707 50.9274 154.759 51.4449 153.723 51.5937C153.478 52.392 153.064 53.1283 152.509 53.7524C151.954 54.3766 151.271 54.8739 150.507 55.2108L150.674 56.8888C150.68 56.9468 150.709 57.028 150.806 57.1255C150.906 57.2265 151.058 57.3228 151.239 57.3889C151.568 57.5085 151.956 57.7069 152.272 58.0481C152.603 58.4078 152.814 58.8871 152.814 59.4708V60.3411H154.265C154.495 60.3411 154.717 60.4328 154.88 60.596C155.043 60.7592 155.135 60.9806 155.135 61.2114C155.135 61.4423 155.043 61.6636 154.88 61.8269C154.717 61.9901 154.495 62.0818 154.265 62.0818H142.08C141.849 62.0818 141.628 61.9901 141.464 61.8269C141.301 61.6636 141.21 61.4423 141.21 61.2114C141.21 60.9806 141.301 60.7592 141.464 60.596C141.628 60.4328 141.849 60.3411 142.08 60.3411H143.53V59.4708C143.53 58.8871 143.742 58.4078 144.074 58.0481C144.387 57.7069 144.777 57.5085 145.105 57.3889C145.267 57.3331 145.414 57.2432 145.538 57.1255C145.635 57.0269 145.665 56.948 145.67 56.8888L145.837 55.2108C145.073 54.8738 144.391 54.3764 143.836 53.7522C143.282 53.1281 142.868 52.3919 142.623 51.5937H142.622ZM142.37 46.4158H140.919C140.843 46.4158 140.769 46.4463 140.714 46.5007C140.66 46.5551 140.629 46.6289 140.629 46.7059V47.2861C140.629 48.4233 141.356 49.39 142.37 49.7486V46.4158ZM147.542 55.6645L147.403 57.0617C147.295 58.1351 146.407 58.7675 145.7 59.024C145.57 59.0644 145.451 59.1343 145.352 59.2282C145.309 59.2747 145.271 59.3362 145.271 59.4719V60.3423H151.073V59.4719C151.073 59.3362 151.035 59.2747 150.992 59.2282C150.893 59.1343 150.774 59.0644 150.644 59.024C149.937 58.7675 149.05 58.1351 148.943 57.0628L148.804 55.6657C148.384 55.711 147.961 55.711 147.542 55.6657V55.6645ZM153.974 49.7497V46.4158H155.425C155.502 46.4158 155.576 46.4463 155.63 46.5007C155.685 46.5551 155.715 46.6289 155.715 46.7059V47.2861C155.715 47.8262 155.548 48.353 155.236 48.794C154.924 49.235 154.484 49.5685 153.974 49.7486V49.7497ZM144.111 45.3342C144.111 45.2913 144.145 45.2553 144.19 45.2553H152.155C152.198 45.2553 152.234 45.2901 152.234 45.3342V49.8971C152.234 50.9743 151.806 52.0074 151.044 52.7691C150.282 53.5307 149.249 53.9587 148.172 53.9587C147.095 53.9587 146.062 53.5307 145.3 52.7691C144.539 52.0074 144.111 50.9743 144.111 49.8971V45.3342Z" fill="white"></path><path d="M148.172 46.2998L148.797 48.2242H150.821L149.184 49.4136L149.809 51.338L148.172 50.1487L146.535 51.338L147.16 49.4136L145.523 48.2242H147.547L148.172 46.2998Z" fill="white"></path><path d="M324.709 23.3518V16.0721C324.709 15.7537 324.772 15.4383 324.894 15.1441C325.016 14.8499 325.194 14.5825 325.419 14.3574C325.645 14.1322 325.912 13.9536 326.206 13.8318C326.501 13.71 326.816 13.6474 327.134 13.6475H329.281C329.923 13.6488 330.537 13.9045 330.991 14.3586C331.444 14.8126 331.698 15.4278 331.698 16.0693V17.6187C331.698 18.2619 331.443 18.8788 330.988 19.3337C330.533 19.7885 329.916 20.044 329.273 20.044H326.236" stroke="white" stroke-width="0.52944" stroke-linecap="round" stroke-linejoin="round"></path><path d="M332.301 13.6455H333.231C333.495 13.6455 333.748 13.7504 333.935 13.9371C334.122 14.1238 334.227 14.377 334.227 14.641V20.08" stroke="white" stroke-width="0.52944" stroke-linecap="round" stroke-linejoin="round"></path><path d="M334.026 12.8031L333.604 12.3801C333.579 12.3552 333.559 12.3256 333.546 12.293C333.532 12.2604 333.525 12.2254 333.525 12.1901C333.525 12.1548 333.532 12.1199 333.546 12.0873C333.559 12.0547 333.579 12.025 333.604 12.0001L334.026 11.5779C334.051 11.5529 334.081 11.533 334.114 11.5195C334.146 11.506 334.181 11.499 334.216 11.499C334.252 11.499 334.287 11.506 334.319 11.5195C334.352 11.533 334.382 11.5529 334.406 11.5779L334.829 12.0001C334.854 12.025 334.874 12.0547 334.888 12.0873C334.901 12.1199 334.908 12.1548 334.908 12.1901C334.908 12.2254 334.901 12.2604 334.888 12.293C334.874 12.3256 334.854 12.3552 334.829 12.3801L334.406 12.8031C334.382 12.8281 334.352 12.8479 334.319 12.8614C334.287 12.875 334.252 12.8819 334.216 12.8819C334.181 12.8819 334.146 12.875 334.114 12.8614C334.081 12.8479 334.051 12.8281 334.026 12.8031Z" fill="white"></path><path d="M336.018 13.6416H336.942C337.418 13.6417 337.874 13.8306 338.21 14.1669L340.373 16.3289C340.44 16.3957 340.519 16.4486 340.606 16.4848C340.693 16.5209 340.786 16.5395 340.88 16.5395C340.974 16.5395 341.068 16.5209 341.155 16.4848C341.242 16.4486 341.321 16.3957 341.387 16.3289L343.544 14.1748C343.711 14.0082 343.908 13.8761 344.126 13.7859C344.344 13.6958 344.577 13.6494 344.812 13.6495H345.564" stroke="white" stroke-width="0.52944" stroke-linecap="round" stroke-linejoin="round"></path><path d="M336.018 20.031H336.942C337.418 20.0309 337.874 19.842 338.21 19.5057L340.373 17.3444C340.44 17.2776 340.519 17.2247 340.606 17.1885C340.693 17.1524 340.786 17.1338 340.88 17.1338C340.974 17.1338 341.068 17.1524 341.155 17.1885C341.242 17.2247 341.321 17.2776 341.387 17.3444L343.544 19.4978C343.711 19.6644 343.908 19.7965 344.126 19.8867C344.344 19.9768 344.577 20.0232 344.812 20.0231H345.564" stroke="white" stroke-width="0.52944" stroke-linecap="round" stroke-linejoin="round"></path><path d="M319.197 21.4134C318.968 21.4141 318.742 21.3695 318.531 21.2821C318.32 21.1948 318.129 21.0665 317.968 20.9046L316.194 19.1347C316.131 19.0746 316.048 19.041 315.961 19.041C315.874 19.041 315.79 19.0746 315.728 19.1347L313.947 20.9146C313.786 21.0765 313.595 21.2048 313.384 21.2922C313.173 21.3795 312.947 21.4241 312.718 21.4234H312.369L314.616 23.6706C314.953 24.0074 315.41 24.1966 315.886 24.1966C316.363 24.1966 316.82 24.0074 317.157 23.6706L319.41 21.417L319.197 21.4134Z" fill="white"></path><path d="M312.719 15.1373C312.947 15.1368 313.173 15.1815 313.384 15.2688C313.595 15.3561 313.787 15.4844 313.948 15.6462L315.728 17.4267C315.79 17.4884 315.874 17.523 315.961 17.523C316.049 17.523 316.132 17.4884 316.194 17.4267L317.968 15.6526C318.129 15.4908 318.321 15.3626 318.532 15.2753C318.743 15.1879 318.969 15.1432 319.197 15.1438H319.412L317.159 12.8909C316.992 12.7239 316.794 12.5915 316.576 12.5011C316.358 12.4108 316.124 12.3643 315.888 12.3643C315.652 12.3643 315.419 12.4108 315.2 12.5011C314.982 12.5915 314.784 12.7239 314.618 12.8909L312.371 15.1373H312.719Z" fill="white"></path><path d="M321.274 17.008L319.914 15.6482C319.883 15.6605 319.85 15.6671 319.817 15.6676H319.198C318.876 15.6689 318.567 15.7975 318.339 16.0254L316.562 17.7959C316.483 17.875 316.39 17.9378 316.286 17.9805C316.183 18.0232 316.072 18.0452 315.96 18.045C315.735 18.0454 315.518 17.9561 315.358 17.7967L313.577 16.0161C313.349 15.7882 313.041 15.6596 312.719 15.6583H311.958C311.926 15.6577 311.895 15.6514 311.866 15.6396L310.499 17.0066C310.332 17.1734 310.2 17.3715 310.11 17.5895C310.019 17.8075 309.973 18.0412 309.973 18.2772C309.973 18.5132 310.019 18.7469 310.11 18.9649C310.2 19.183 310.332 19.3811 310.499 19.5479L311.866 20.9148C311.895 20.9031 311.926 20.8968 311.958 20.8962H312.719C313.041 20.8946 313.349 20.766 313.577 20.5384L315.358 18.7578C315.52 18.603 315.736 18.5166 315.96 18.5166C316.184 18.5166 316.4 18.603 316.562 18.7578L318.336 20.5319C318.564 20.7596 318.873 20.8882 319.195 20.8897H319.814C319.848 20.8901 319.88 20.8969 319.911 20.9098L321.271 19.55C321.608 19.2129 321.797 18.7559 321.797 18.2794C321.797 17.8028 321.608 17.3458 321.271 17.0087" fill="white"></path><path d="M326.557 22.7328C326.444 22.7379 326.333 22.7549 326.224 22.7836V23.2273C326.307 23.2567 326.395 23.2714 326.483 23.271C326.706 23.271 326.811 23.1958 326.811 22.9997C326.811 22.8158 326.725 22.7328 326.557 22.7328ZM326.148 23.5565V22.6798H326.21L326.216 22.7178C326.33 22.6874 326.446 22.6687 326.564 22.662C326.645 22.6563 326.725 22.6797 326.791 22.7278C326.827 22.7628 326.855 22.8053 326.872 22.8524C326.889 22.8995 326.896 22.9498 326.891 22.9997C326.896 23.0554 326.884 23.1112 326.859 23.1611C326.834 23.2109 326.796 23.2529 326.748 23.2824C326.668 23.322 326.579 23.3416 326.49 23.3397C326.399 23.3391 326.309 23.3254 326.223 23.2989V23.5565H326.148Z" fill="white"></path><path d="M327.449 22.7307C327.226 22.7307 327.128 22.8023 327.128 22.9963C327.128 23.1902 327.226 23.2711 327.449 23.2711C327.672 23.2711 327.77 23.1995 327.77 23.0063C327.77 22.8131 327.672 22.7307 327.449 22.7307ZM327.735 23.2711C327.65 23.3241 327.55 23.3491 327.449 23.3426C327.349 23.3487 327.249 23.3237 327.163 23.2711C327.123 23.2392 327.091 23.1978 327.071 23.1507C327.051 23.1036 327.043 23.0522 327.048 23.0013C327.044 22.9502 327.052 22.8989 327.072 22.8517C327.092 22.8045 327.123 22.763 327.163 22.7307C327.248 22.6778 327.349 22.6528 327.449 22.6592C327.55 22.6529 327.65 22.6779 327.735 22.7307C327.775 22.7627 327.806 22.8039 327.826 22.8509C327.846 22.8979 327.854 22.949 327.85 22.9998C327.855 23.051 327.847 23.1026 327.827 23.1499C327.807 23.1973 327.775 23.2389 327.735 23.2711Z" fill="white"></path><path d="M328.788 23.3218L328.54 22.7894H328.535L328.291 23.3218H328.228L327.963 22.6777H328.046L328.266 23.2166H328.271L328.51 22.6777H328.581L328.827 23.2166H328.832L329.046 22.6777H329.127L328.862 23.3218H328.788Z" fill="white"></path><path d="M329.599 22.7295C329.393 22.7295 329.324 22.8211 329.313 22.9535H329.89C329.884 22.8067 329.809 22.7295 329.604 22.7295H329.599ZM329.604 23.3399C329.509 23.35 329.414 23.3245 329.337 23.2683C329.3 23.2345 329.271 23.1927 329.252 23.1461C329.234 23.0995 329.226 23.0493 329.229 22.9993C329.227 22.9473 329.236 22.8954 329.257 22.8477C329.277 22.8 329.309 22.7578 329.349 22.7244C329.424 22.6777 329.511 22.6553 329.599 22.66C329.689 22.6545 329.779 22.6762 329.856 22.7223C329.949 22.7846 329.967 22.8941 329.967 23.0186H329.308C329.308 23.1503 329.354 23.2676 329.603 23.2676C329.714 23.265 329.826 23.2525 329.935 23.2304V23.2977C329.824 23.3209 329.711 23.3343 329.597 23.3378" fill="white"></path><path d="M330.182 23.3212V22.6771H330.243L330.25 22.715C330.353 22.6812 330.46 22.6624 330.568 22.6592H330.577V22.7307H330.56C330.457 22.733 330.355 22.7501 330.257 22.7816V23.3197L330.182 23.3212Z" fill="white"></path><path d="M331.014 22.7292C330.808 22.7292 330.737 22.8208 330.727 22.9532H331.305C331.299 22.8065 331.223 22.7292 331.019 22.7292H331.014ZM331.019 23.3397C330.924 23.3496 330.829 23.3241 330.752 23.2681C330.716 23.2338 330.689 23.1921 330.672 23.1459C330.654 23.0998 330.647 23.0503 330.652 23.0012C330.649 22.9493 330.658 22.8974 330.679 22.8497C330.7 22.802 330.731 22.7598 330.771 22.7264C330.846 22.6797 330.933 22.6572 331.022 22.662C331.111 22.6565 331.201 22.6782 331.278 22.7242C331.371 22.7865 331.389 22.896 331.389 23.0205H330.73C330.73 23.1522 330.776 23.2696 331.025 23.2696C331.137 23.2669 331.248 23.2544 331.357 23.2324V23.2996C331.246 23.3228 331.132 23.3362 331.019 23.3397Z" fill="white"></path><path d="M332.202 22.7732C332.119 22.7441 332.032 22.7296 331.943 22.7303C331.721 22.7303 331.615 22.8054 331.615 23.0008C331.615 23.1961 331.701 23.2677 331.87 23.2677C331.982 23.2624 332.093 23.2459 332.202 23.2183V22.7732ZM332.217 23.3214L332.21 23.2827C332.097 23.3133 331.98 23.3322 331.863 23.3393C331.782 23.3455 331.701 23.3219 331.636 23.2727C331.599 23.2379 331.572 23.1954 331.554 23.1483C331.537 23.1012 331.53 23.0508 331.535 23.0008C331.53 22.9453 331.542 22.8897 331.567 22.8401C331.592 22.7905 331.63 22.7488 331.678 22.7195C331.758 22.679 331.848 22.6591 331.938 22.6615C332.028 22.6626 332.117 22.6763 332.203 22.7023V22.4082H332.278V23.3214H332.217Z" fill="white"></path><path d="M333.381 22.7324C333.268 22.7374 333.156 22.7545 333.047 22.7832V23.2255C333.131 23.2559 333.219 23.2711 333.307 23.2706C333.53 23.2706 333.635 23.1954 333.635 22.9993C333.635 22.8154 333.548 22.7324 333.381 22.7324ZM333.573 23.282C333.492 23.3216 333.404 23.3412 333.314 23.3393C333.217 23.3383 333.12 23.3218 333.028 23.2906V23.3214H332.977V22.4082H333.048V22.7124C333.16 22.6839 333.273 22.6662 333.388 22.6594C333.469 22.6538 333.55 22.6771 333.616 22.7252C333.652 22.7602 333.679 22.8028 333.697 22.8498C333.714 22.8969 333.721 22.9473 333.716 22.9972C333.72 23.0529 333.709 23.1087 333.684 23.1585C333.659 23.2084 333.62 23.2503 333.573 23.2799" fill="white"></path><path d="M333.812 23.5711V23.4996C333.848 23.4996 333.883 23.506 333.907 23.506C333.951 23.5096 333.994 23.4985 334.03 23.4745C334.067 23.4505 334.094 23.415 334.108 23.3736L334.133 23.3228L333.797 22.6787H333.883L334.17 23.2326H334.175L334.448 22.6787H334.533L334.175 23.3994C334.109 23.5303 334.038 23.5733 333.907 23.5733C333.875 23.5747 333.844 23.574 333.812 23.5711Z" fill="white"></path><path d="M335.569 22.9547H335.319V23.1802H335.569C335.741 23.1802 335.806 23.1608 335.806 23.0664C335.806 22.9719 335.717 22.9547 335.569 22.9547ZM335.523 22.5898H335.319V22.8188H335.524C335.693 22.8188 335.761 22.7987 335.761 22.7028C335.761 22.6069 335.675 22.5898 335.523 22.5898ZM335.909 23.2603C335.818 23.3183 335.707 23.3212 335.505 23.3212H335.125V22.4502H335.496C335.67 22.4502 335.777 22.4502 335.866 22.506C335.895 22.5237 335.919 22.5492 335.935 22.5798C335.951 22.6105 335.958 22.6449 335.955 22.6792C335.957 22.7222 335.945 22.7646 335.92 22.7997C335.895 22.8348 335.859 22.8604 335.818 22.8724V22.8774C335.929 22.9025 336.002 22.9597 336.002 23.0836C336.004 23.1187 335.997 23.1539 335.981 23.1852C335.965 23.2164 335.94 23.2425 335.909 23.2603Z" fill="white"></path><path d="M336.763 23.0518C336.692 23.0454 336.612 23.0418 336.532 23.0418C336.401 23.0418 336.355 23.0683 336.355 23.1284C336.355 23.1885 336.393 23.2143 336.493 23.2143C336.584 23.2111 336.675 23.1984 336.763 23.1764V23.0518ZM336.801 23.3216L336.796 23.283C336.682 23.3153 336.565 23.3342 336.447 23.3395C336.38 23.344 336.312 23.3276 336.254 23.2923C336.23 23.2743 336.211 23.2507 336.198 23.2236C336.186 23.1965 336.18 23.1668 336.182 23.137C336.18 23.1005 336.19 23.0643 336.209 23.0333C336.228 23.0023 336.257 22.9778 336.29 22.9631C336.367 22.9343 336.449 22.9221 336.531 22.9273C336.598 22.9273 336.689 22.9309 336.764 22.9359V22.9273C336.764 22.8271 336.698 22.7942 336.517 22.7942C336.445 22.7942 336.362 22.7978 336.281 22.8056V22.6754C336.371 22.6682 336.473 22.6632 336.556 22.6632C336.66 22.6541 336.763 22.6747 336.855 22.7226C336.927 22.7749 336.943 22.8472 336.943 22.9431V23.3231L336.801 23.3216Z" fill="white"></path><path d="M337.779 23.3221V22.9642C337.779 22.8476 337.719 22.8054 337.613 22.8054C337.524 22.8092 337.436 22.8228 337.351 22.8461V23.3192H337.174V22.6751H337.317L337.323 22.7152C337.435 22.6828 337.55 22.6633 337.666 22.6572C337.745 22.6511 337.824 22.6745 337.887 22.7231C337.913 22.7492 337.933 22.7808 337.945 22.8156C337.957 22.8503 337.962 22.8874 337.958 22.9242V23.3171L337.779 23.3221Z" fill="white"></path><path d="M338.463 23.34C338.378 23.3466 338.293 23.3225 338.224 23.272C338.188 23.2374 338.16 23.1949 338.142 23.1478C338.124 23.1007 338.118 23.0501 338.123 23.0001C338.119 22.947 338.13 22.8939 338.152 22.8459C338.175 22.798 338.21 22.7567 338.254 22.726C338.339 22.6778 338.437 22.6557 338.536 22.6623C338.607 22.6623 338.682 22.6673 338.762 22.6744V22.8118C338.697 22.8061 338.619 22.8004 338.557 22.8004C338.387 22.8004 338.307 22.8541 338.307 23.0015C338.307 23.1489 338.367 23.1997 338.506 23.1997C338.597 23.1969 338.687 23.1859 338.776 23.1668V23.2992C338.673 23.3228 338.569 23.3365 338.463 23.34Z" fill="white"></path><path d="M339.307 22.7964C339.136 22.7964 339.061 22.8501 339.061 22.9961C339.061 23.1421 339.133 23.2043 339.307 23.2043C339.48 23.2043 339.549 23.1521 339.549 23.0061C339.549 22.8601 339.478 22.7964 339.307 22.7964ZM339.614 23.2716C339.521 23.3245 339.414 23.3482 339.307 23.3396C339.199 23.3479 339.091 23.3243 338.997 23.2716C338.955 23.2409 338.922 23.1998 338.901 23.1524C338.88 23.1049 338.871 23.0528 338.876 23.0011C338.871 22.9492 338.88 22.8968 338.901 22.8492C338.922 22.8015 338.955 22.7602 338.997 22.7291C339.092 22.6767 339.199 22.6533 339.307 22.6619C339.413 22.6537 339.521 22.6771 339.614 22.7291C339.656 22.7601 339.689 22.8012 339.71 22.8486C339.731 22.8961 339.739 22.9481 339.734 22.9997C339.739 23.0514 339.731 23.1036 339.71 23.1513C339.689 23.1989 339.656 23.2403 339.614 23.2716Z" fill="white"></path><path d="M340.77 23.3398C340.658 23.3469 340.547 23.3147 340.457 23.2489C340.352 23.1631 340.321 23.0292 340.321 22.8854C340.317 22.8139 340.331 22.7425 340.362 22.6779C340.393 22.6133 340.44 22.5574 340.498 22.5154C340.61 22.4532 340.738 22.4246 340.866 22.4331C340.963 22.4331 341.062 22.4395 341.17 22.4481V22.6048C341.077 22.597 340.963 22.5905 340.874 22.5905C340.626 22.5905 340.521 22.685 340.521 22.8854C340.521 23.0858 340.618 23.1817 340.801 23.1817C340.932 23.1774 341.062 23.1599 341.189 23.1294V23.2854C341.051 23.3177 340.911 23.3361 340.77 23.3405" fill="white"></path><path d="M341.713 22.7769C341.564 22.7769 341.507 22.8298 341.499 22.9279H341.928C341.923 22.8234 341.862 22.7769 341.713 22.7769ZM341.687 23.3401C341.591 23.3488 341.494 23.3235 341.415 23.2685C341.378 23.2345 341.35 23.1927 341.332 23.1462C341.315 23.0997 341.308 23.0498 341.312 23.0002C341.309 22.9488 341.318 22.8974 341.339 22.8504C341.36 22.8034 341.392 22.762 341.432 22.7296C341.517 22.6788 341.615 22.6553 341.713 22.6624C341.81 22.6563 341.907 22.6787 341.992 22.7268C342.095 22.7983 342.103 22.9114 342.105 23.0438H341.494C341.499 23.1419 341.551 23.2048 341.731 23.2048C341.846 23.2023 341.96 23.1913 342.073 23.1719V23.2979C341.946 23.3221 341.816 23.3362 341.687 23.3401Z" fill="white"></path><path d="M342.903 23.3221V22.9642C342.903 22.8476 342.843 22.8054 342.736 22.8054C342.648 22.8092 342.56 22.8228 342.475 22.8461V23.3192H342.295V22.6751H342.442L342.448 22.7152C342.56 22.6827 342.675 22.6633 342.791 22.6572C342.87 22.6511 342.949 22.6745 343.011 22.7231C343.037 22.7492 343.057 22.7808 343.07 22.8156C343.082 22.8503 343.087 22.8874 343.083 22.9242V23.3171L342.903 23.3221Z" fill="white"></path><path d="M343.592 23.3399C343.552 23.3437 343.512 23.3373 343.476 23.3213C343.439 23.3052 343.408 23.2801 343.384 23.2482C343.348 23.1898 343.332 23.1218 343.337 23.0536V22.8131H343.207V22.68H343.337L343.356 22.4854H343.515V22.68H343.767V22.8131H343.515V23.0192C343.512 23.0608 343.518 23.1025 343.533 23.1416C343.544 23.1624 343.561 23.1793 343.582 23.1899C343.602 23.2006 343.626 23.2044 343.649 23.201C343.692 23.2003 343.735 23.196 343.777 23.1881V23.317C343.716 23.3303 343.654 23.338 343.592 23.3399Z" fill="white"></path><path d="M343.943 23.3212V22.6771H344.086L344.093 22.7171C344.195 22.6826 344.303 22.663 344.411 22.6592H344.434V22.8123C344.413 22.8123 344.389 22.8123 344.371 22.8123C344.286 22.8126 344.202 22.8237 344.119 22.8453V23.3197L343.943 23.3212Z" fill="white"></path><path d="M345.088 23.0518C345.013 23.0454 344.936 23.0418 344.856 23.0418C344.725 23.0418 344.68 23.0683 344.68 23.1284C344.68 23.1885 344.718 23.2143 344.818 23.2143C344.909 23.211 345 23.1983 345.088 23.1764V23.0518ZM345.126 23.3216L345.119 23.2851C345.005 23.3173 344.888 23.3363 344.77 23.3417C344.702 23.3461 344.634 23.3296 344.576 23.2945C344.552 23.2764 344.533 23.2528 344.521 23.2257C344.508 23.1986 344.503 23.1689 344.504 23.1392C344.502 23.1016 344.512 23.0645 344.533 23.0329C344.553 23.0013 344.583 22.9769 344.618 22.9631C344.695 22.9349 344.776 22.9232 344.858 22.9287C344.925 22.9287 345.016 22.9323 345.091 22.9373V22.9273C345.091 22.8271 345.024 22.7942 344.844 22.7942C344.773 22.7942 344.689 22.7978 344.607 22.8057V22.6754C344.698 22.6682 344.8 22.6632 344.883 22.6632C344.987 22.6541 345.09 22.6747 345.182 22.7226C345.253 22.7749 345.27 22.8472 345.27 22.9431V23.3231L345.126 23.3216Z" fill="white"></path><path d="M345.496 22.4082H345.676V23.3214H345.496V22.4082Z" fill="white"></path><path d="M291.087 21.1207H291.112L293.171 15.9528H294.618L290.169 26.3141H288.797L290.45 22.6891L287.531 15.9528H288.979L291.087 21.1207ZM284.123 15.7184C285.107 15.7184 285.885 15.9868 286.455 16.5153C287.026 17.0438 287.307 17.7823 287.307 18.7135V23.151H286.033V22.1529H285.976C285.422 22.975 284.694 23.3862 283.776 23.3863C282.999 23.3863 282.337 23.1511 281.816 22.6813C281.304 22.245 281.014 21.5991 281.03 20.9195C281.03 20.173 281.312 19.5858 281.866 19.1412C282.42 18.6968 283.164 18.4782 284.09 18.4781C284.884 18.4781 285.529 18.6294 286.042 18.9147V18.6041C286.042 18.1429 285.843 17.7069 285.496 17.4049C285.141 17.0861 284.685 16.9098 284.214 16.9098C283.47 16.9099 282.883 17.2285 282.453 17.8658L281.278 17.1197C281.907 16.1886 282.858 15.7184 284.123 15.7184ZM277.814 12.6305C278.666 12.6138 279.493 12.9416 280.097 13.5455C281.304 14.6865 281.378 16.6073 280.245 17.8404L280.097 17.9918C279.477 18.5874 278.716 18.8892 277.814 18.8893H275.614V23.151H274.283V12.6305H277.814ZM284.298 19.569C283.76 19.569 283.305 19.7035 282.941 19.9635C282.586 20.2235 282.403 20.5507 282.403 20.9449C282.403 21.2972 282.569 21.6244 282.842 21.8258C283.14 22.0607 283.504 22.1867 283.876 22.1783C284.438 22.1782 284.976 21.952 285.373 21.5494C285.811 21.13 286.034 20.6345 286.034 20.0641C285.621 19.7286 285.042 19.5606 284.298 19.569ZM275.614 17.5973H277.847C278.343 17.6141 278.823 17.4121 279.162 17.0514C279.857 16.3215 279.84 15.1476 279.12 14.443C278.781 14.1074 278.326 13.9225 277.847 13.9225H275.614V17.5973Z" fill="white"></path><path d="M271.021 17.9651C271.021 17.554 270.988 17.1429 270.921 16.7402H265.307V19.0641H268.523C268.391 19.8107 267.961 20.4819 267.333 20.9013V22.4114H269.251C270.376 21.3628 271.021 19.8107 271.021 17.9651Z" fill="white"></path><path d="M265.307 23.8709C266.912 23.8709 268.268 23.334 269.252 22.4111L267.333 20.9011C266.796 21.2702 266.109 21.4799 265.307 21.4799C263.753 21.4799 262.438 20.4145 261.967 18.9883H259.99V20.5487C260.999 22.5873 263.058 23.8709 265.307 23.8709Z" fill="white"></path><path d="M261.965 18.9886C261.717 18.2419 261.717 17.4282 261.965 16.6731V15.1211H259.989C259.137 16.8241 259.137 18.8376 259.989 20.5406L261.965 18.9886Z" fill="white"></path><path d="M265.307 14.1814C266.159 14.1646 266.978 14.4918 267.59 15.0874L269.293 13.3592C268.21 12.3357 266.787 11.7736 265.307 11.7904C263.058 11.7904 260.999 13.0824 259.99 15.121L261.967 16.6814C262.438 15.2468 263.753 14.1814 265.307 14.1814Z" fill="white"></path><path fill-rule="evenodd" clip-rule="evenodd" d="M217.114 22.4199H214.92C214.77 22.4199 214.642 22.5291 214.618 22.6773L213.731 28.3048C213.713 28.4159 213.799 28.516 213.912 28.516H214.96C215.11 28.516 215.237 28.4068 215.261 28.2583L215.5 26.7405C215.523 26.5919 215.651 26.4829 215.801 26.4829H216.496C217.942 26.4829 218.776 25.7833 218.994 24.397C219.092 23.7906 218.998 23.314 218.714 22.9802C218.402 22.6139 217.849 22.4199 217.114 22.4199ZM217.367 24.4753C217.248 25.2628 216.646 25.2628 216.064 25.2628H215.733L215.965 23.7921C215.979 23.7033 216.056 23.6378 216.146 23.6378H216.298C216.694 23.6378 217.068 23.6378 217.261 23.8636C217.376 23.9985 217.411 24.1986 217.367 24.4753ZM223.674 24.4501H222.623C222.534 24.4501 222.457 24.5155 222.443 24.6045L222.396 24.8984L222.323 24.7919C222.095 24.4616 221.588 24.3513 221.082 24.3513C219.92 24.3513 218.928 25.2309 218.735 26.4648C218.635 27.0801 218.777 27.6686 219.127 28.0791C219.447 28.4564 219.905 28.6137 220.45 28.6137C221.386 28.6137 221.905 28.012 221.905 28.012L221.858 28.3041C221.84 28.4157 221.926 28.5158 222.038 28.5158H222.985C223.136 28.5158 223.263 28.4067 223.286 28.2582L223.854 24.6612C223.872 24.5506 223.787 24.4501 223.674 24.4501ZM222.209 26.4955C222.108 27.0959 221.632 27.4989 221.024 27.4989C220.719 27.4989 220.475 27.401 220.318 27.2156C220.163 27.0314 220.104 26.7692 220.153 26.4772C220.248 25.8819 220.732 25.4658 221.331 25.4658C221.629 25.4658 221.872 25.5648 222.032 25.752C222.192 25.941 222.255 26.2047 222.209 26.4955ZM228.215 24.4499H229.272C229.419 24.4499 229.506 24.6158 229.422 24.7371L225.909 29.8072C225.852 29.8893 225.759 29.9382 225.659 29.9382H224.604C224.455 29.9382 224.369 29.7709 224.454 29.6493L225.548 28.1055L224.385 24.6918C224.345 24.5732 224.432 24.4499 224.559 24.4499H225.596C225.731 24.4499 225.85 24.5384 225.889 24.6675L226.506 26.7292L227.963 24.5837C228.02 24.5 228.115 24.4499 228.215 24.4499Z" fill="white"></path><path fill-rule="evenodd" clip-rule="evenodd" d="M239.666 28.3051L240.567 22.5747C240.581 22.4857 240.658 22.4202 240.747 22.4199H241.761C241.873 22.4199 241.959 22.5203 241.942 22.6314L241.053 28.2586C241.03 28.4071 240.903 28.5163 240.752 28.5163H239.847C239.735 28.5163 239.649 28.4162 239.666 28.3051ZM232.769 22.4202H230.574C230.424 22.4202 230.296 22.5294 230.273 22.6776L229.385 28.3051C229.367 28.4162 229.453 28.5163 229.566 28.5163H230.692C230.796 28.5163 230.886 28.4399 230.902 28.336L231.154 26.7408C231.177 26.5922 231.305 26.4832 231.455 26.4832H232.15C233.596 26.4832 234.43 25.7836 234.648 24.3973C234.746 23.7909 234.652 23.3143 234.368 22.9805C234.056 22.6142 233.503 22.4202 232.769 22.4202ZM233.022 24.4756C232.902 25.2631 232.3 25.2631 231.718 25.2631H231.387L231.62 23.7924C231.634 23.7036 231.71 23.6381 231.8 23.6381H231.952C232.348 23.6381 232.722 23.6381 232.916 23.8639C233.031 23.9988 233.066 24.1989 233.022 24.4756ZM239.328 24.4504H238.278C238.188 24.4504 238.111 24.5158 238.098 24.6048L238.051 24.8987L237.977 24.7922C237.75 24.4619 237.243 24.3516 236.736 24.3516C235.575 24.3516 234.583 25.2312 234.39 26.465C234.29 27.0804 234.432 27.6689 234.781 28.0794C235.102 28.4567 235.56 28.614 236.105 28.614C237.041 28.614 237.56 28.0123 237.56 28.0123L237.513 28.3044C237.495 28.416 237.581 28.5161 237.694 28.5161H238.64C238.79 28.5161 238.918 28.407 238.941 28.2585L239.51 24.6615C239.527 24.5509 239.441 24.4504 239.328 24.4504ZM237.863 26.4958C237.763 27.0962 237.285 27.4992 236.678 27.4992C236.373 27.4992 236.129 27.4013 235.972 27.2159C235.817 27.0317 235.758 26.7695 235.807 26.4775C235.902 25.8822 236.386 25.4661 236.985 25.4661C237.283 25.4661 237.526 25.5651 237.686 25.7522C237.846 25.9413 237.91 26.205 237.863 26.4958Z" fill="white"></path><path d="M225.236 20.4071L225.506 18.6934L224.905 18.6794H222.035L224.03 6.03376C224.036 5.99558 224.056 5.95999 224.085 5.93471C224.115 5.90944 224.152 5.89551 224.192 5.89551H229.03C230.637 5.89551 231.745 6.22979 232.324 6.88959C232.596 7.19913 232.768 7.52257 232.852 7.87852C232.94 8.25203 232.941 8.69826 232.856 9.24251L232.849 9.28223V9.63095L233.121 9.78469C233.349 9.90591 233.531 10.0447 233.67 10.2036C233.902 10.4682 234.052 10.8046 234.116 11.2033C234.181 11.6135 234.16 12.1015 234.052 12.654C233.929 13.2895 233.728 13.8431 233.458 14.296C233.209 14.7134 232.893 15.0594 232.517 15.3278C232.158 15.5826 231.731 15.7761 231.249 15.8999C230.781 16.0216 230.248 16.083 229.664 16.083H229.287C229.018 16.083 228.756 16.18 228.551 16.3539C228.345 16.5314 228.209 16.7737 228.167 17.0389L228.139 17.1932L227.662 20.2136L227.641 20.3245C227.635 20.3597 227.625 20.3772 227.611 20.3891C227.598 20.3998 227.579 20.4071 227.561 20.4071H225.236Z" fill="white"></path><path d="M233.377 9.32324C233.363 9.41558 233.346 9.50998 233.328 9.60697C232.689 12.8833 230.506 14.0151 227.718 14.0151H226.298C225.957 14.0151 225.67 14.2627 225.617 14.5991L224.89 19.209L224.684 20.5156C224.65 20.7365 224.82 20.9356 225.043 20.9356H227.561C227.859 20.9356 228.112 20.7189 228.159 20.4249L228.184 20.2969L228.658 17.2883L228.688 17.1233C228.735 16.8283 228.989 16.6116 229.287 16.6116H229.663C232.103 16.6116 234.013 15.6211 234.571 12.7548C234.804 11.5575 234.683 10.5577 234.066 9.85459C233.88 9.64256 233.648 9.46665 233.377 9.32324Z" fill="white"></path><path d="M232.71 9.05619C232.613 9.02782 232.512 9.00202 232.409 8.97881C232.305 8.95612 232.199 8.936 232.089 8.91846C231.707 8.85655 231.287 8.82715 230.838 8.82715H227.045C226.952 8.82715 226.863 8.84829 226.784 8.88647C226.609 8.97055 226.479 9.13616 226.447 9.33889L225.64 14.4492L225.617 14.5982C225.67 14.2619 225.958 14.0143 226.299 14.0143H227.718C230.507 14.0143 232.69 12.8819 233.328 9.60612C233.347 9.50913 233.363 9.41473 233.377 9.32239C233.216 9.23675 233.041 9.1635 232.853 9.10107C232.806 9.0856 232.759 9.07064 232.71 9.05619Z" fill="white"></path><path d="M226.448 9.33891C226.479 9.13616 226.609 8.97057 226.784 8.887C226.864 8.84882 226.952 8.82767 227.046 8.82767H230.839C231.288 8.82767 231.707 8.85707 232.09 8.91898C232.199 8.93652 232.306 8.95664 232.409 8.97933C232.513 9.00256 232.613 9.02835 232.711 9.05672C232.759 9.07117 232.807 9.08612 232.854 9.10109C233.042 9.1635 233.217 9.23728 233.379 9.3224C233.569 8.11164 233.377 7.28727 232.723 6.54079C232.001 5.71901 230.698 5.36719 229.031 5.36719H224.192C223.852 5.36719 223.562 5.6148 223.509 5.95167L221.493 18.7273C221.454 18.9801 221.649 19.2082 221.903 19.2082H224.891L225.641 14.4492L226.448 9.33891Z" fill="white"></path><path d="M129.582 7.97266C134.899 7.97272 139.208 12.3327 139.208 17.7109C139.208 23.0892 134.899 27.4492 129.582 27.4492C127.198 27.4492 125.019 26.5707 123.338 25.1191C121.657 26.5707 119.477 27.4491 117.094 27.4492C111.777 27.4492 107.467 23.0893 107.467 17.7109C107.467 12.3326 111.777 7.97266 117.094 7.97266C119.477 7.97275 121.657 8.85042 123.338 10.3018C125.019 8.85049 127.199 7.97266 129.582 7.97266Z" fill="white"></path><path d="M129.582 7.97266C134.899 7.97272 139.208 12.3327 139.208 17.7109C139.208 23.0892 134.899 27.4492 129.582 27.4492C127.198 27.4492 125.019 26.5707 123.338 25.1191C125.407 23.333 126.72 20.6779 126.72 17.7109C126.72 14.7438 125.407 12.0879 123.338 10.3018C125.019 8.85049 127.199 7.97266 129.582 7.97266Z" fill="#F4F4F4"></path><path d="M123.338 10.3018C125.407 12.0879 126.72 14.7438 126.72 17.7109C126.72 20.6779 125.407 23.333 123.338 25.1191C121.269 23.333 119.955 20.678 119.955 17.7109C119.955 14.7436 121.269 12.0879 123.338 10.3018Z" fill="white"></path><path fill-rule="evenodd" clip-rule="evenodd" d="M160.665 12.9102L156.045 23.1334H161.575L162.261 21.5034H163.828L164.514 23.1334H170.601V21.8894L171.144 23.1334H174.293L174.835 21.8631V23.1334H187.495L189.035 21.5458L190.476 23.1334L196.979 23.1466L192.344 18.0503L196.979 12.9102H190.577L189.078 14.4685L187.682 12.9102H173.91L172.727 15.5489L171.517 12.9102H165.998V14.1119L165.384 12.9102H160.665ZM179.57 14.3616H186.84L189.064 16.7635L191.359 14.3616H193.583L190.204 18.0487L193.583 21.6932H191.258L189.034 19.2634L186.728 21.6932H179.57V14.3616ZM181.365 17.2203V15.8811V15.8798H185.901L187.881 18.0215L185.814 20.1749H181.365V18.7129H185.331V17.2203H181.365ZM161.734 14.3616H164.43L167.494 21.2941V14.3616H170.447L172.814 19.3322L174.995 14.3616H177.934V21.6975H176.146L176.131 15.9492L173.524 21.6975H171.925L169.304 15.9492V21.6975H165.626L164.928 20.0529H161.161L160.465 21.6961H158.494L161.734 14.3616ZM161.805 18.5327L163.046 15.6029L164.286 18.5327H161.805Z" fill="white"></path><path fill-rule="evenodd" clip-rule="evenodd" d="M66.2798 23.8549H63.2886L61.0455 15.2975C60.9391 14.9039 60.713 14.5559 60.3805 14.3919C59.5507 13.9797 58.6362 13.6517 57.6387 13.4862V13.1568H62.4573C63.1223 13.1568 63.6211 13.6517 63.7043 14.2264L64.8681 20.3992L67.8578 13.1568H70.7659L66.2798 23.8549ZM72.4288 23.8549H69.6038L71.93 13.1568H74.7549L72.4288 23.8549ZM78.4098 16.1206C78.4929 15.5444 78.9917 15.2149 79.5736 15.2149C80.4881 15.1322 81.4842 15.2977 82.3155 15.7084L82.8142 13.4051C81.9829 13.0756 81.0685 12.9102 80.2387 12.9102C77.4968 12.9102 75.5017 14.392 75.5017 16.4486C75.5017 18.0132 76.9149 18.8347 77.9125 19.3296C78.9917 19.8231 79.4074 20.1526 79.3242 20.646C79.3242 21.3862 78.4929 21.7157 77.6631 21.7157C76.6655 21.7157 75.668 21.469 74.755 21.0568L74.2562 23.3616C75.2538 23.7723 76.333 23.9378 77.3306 23.9378C80.4049 24.0191 82.3155 22.5386 82.3155 20.3166C82.3155 17.5183 78.4098 17.3543 78.4098 16.1206ZM92.2014 23.8549L89.9583 13.1568H87.549C87.0502 13.1568 86.5514 13.4862 86.3852 13.9797L82.2316 23.8549H85.1397L85.7201 22.2918H89.2933L89.6258 23.8549H92.2014ZM87.9657 16.0382L88.7955 20.0701H86.4693L87.9657 16.0382Z" fill="white"></path><g clip-path="url(#clip0_341_5757)"><path d="M7.05859 7.97266H7.45057V18.3803H7.05859V7.97266ZM7.84254 7.97266H8.23451V18.3803H7.84254V7.97266ZM10.1961 7.97266H10.5881V18.3803H10.1961V7.97266ZM17.8258 7.97266H18.2178V18.3803H17.8258V7.97266ZM20.3765 7.97266H20.7685V18.3803H20.3765V7.97266ZM22.8499 7.97266H23.2419V18.3803H22.8499V7.97266ZM23.4873 7.97266H23.8793V18.3803H23.4879L23.4873 7.97266ZM24.1257 7.97266H24.5177V18.3803H24.1257V7.97266ZM24.8431 7.97266H25.235V18.3803H24.8432L24.8431 7.97266ZM25.5603 7.97266H25.9523V18.3803H25.5603V7.97266ZM27.5544 7.97266H27.9464V18.3803H27.5539L27.5544 7.97266ZM32.4985 7.97266H32.8905V18.3803H32.4985V7.97266ZM37.6558 7.97266H38.0476V18.3803H37.6556L37.6558 7.97266ZM39.0664 7.97266H39.4584V18.3803H39.0664V7.97266ZM40.0862 7.97266H40.4782V18.3803H40.0862V7.97266ZM40.7137 7.97266H41.1057V18.3803H40.7137V7.97266ZM12.7847 7.97266H13.1766V18.3803H12.7847V7.97266ZM8.86239 7.97266H9.56824V18.3803H8.86239V7.97266ZM13.5203 7.97266H14.226V18.3803H13.5203V7.97266ZM16.7909 7.97266H17.4966V18.3803H16.7909V7.97266ZM18.4654 7.97266H19.1711V18.3803H18.4654V7.97266ZM21.0969 7.97266H21.8026V18.3803H21.0969V7.97266ZM28.5992 7.97266H29.6969V18.3803H28.5992V7.97266ZM30.0331 7.97266H30.8952V18.3803H30.0321L30.0331 7.97266ZM31.5461 7.97266H32.2518V18.3803H31.5461V7.97266ZM33.5467 7.97266H34.7234V18.3803H33.5467V7.97266ZM35.851 7.97266H37.0279V18.3803H35.851V7.97266ZM10.9805 7.97266H12.3919V18.3803H10.9805V7.97266ZM14.6388 7.97266H15.7365V18.3803H14.6388V7.97266Z" fill="white"></path><path d="M7.56836 27.6211V21.6641H9.80372C10.1773 21.6496 10.5499 21.7111 10.899 21.8447C11.1666 21.9591 11.3922 22.1536 11.5447 22.4014C11.6959 22.636 11.777 22.9088 11.7786 23.1878C11.7786 23.4422 11.7068 23.6915 11.5714 23.9069C11.4189 24.1442 11.2017 24.333 10.9456 24.4511C11.2743 24.5356 11.5665 24.7253 11.7775 24.9912C11.9728 25.2508 12.0751 25.5686 12.0679 25.8934C12.0702 26.163 12.0098 26.4294 11.8915 26.6717C11.7914 26.8888 11.6411 27.0791 11.4529 27.2267C11.2571 27.3672 11.0353 27.4675 10.8005 27.5219C10.4856 27.5941 10.1631 27.6276 9.84008 27.6217L7.56836 27.6211ZM8.35741 24.1674H9.64564C9.89723 24.1772 10.149 24.154 10.3946 24.0983C10.5743 24.0527 10.7336 23.9484 10.8473 23.802C10.9532 23.6497 11.0066 23.4672 10.9996 23.2819C11.0033 23.0979 10.9539 22.9168 10.8574 22.7601C10.7653 22.6114 10.6222 22.5013 10.4548 22.4505C10.1578 22.3822 9.85296 22.3542 9.54848 22.3672H8.35768L8.35741 24.1674ZM8.35741 26.9183H9.84035C10.0197 26.923 10.1992 26.9136 10.3771 26.8901C10.538 26.864 10.6925 26.8075 10.8323 26.7236C10.96 26.6411 11.0637 26.5263 11.1327 26.3908C11.2134 26.2369 11.254 26.0652 11.251 25.8915C11.2565 25.6842 11.1969 25.4804 11.0804 25.3088C10.9654 25.1442 10.7988 25.0226 10.6069 24.9635C10.3231 24.8868 10.0293 24.8531 9.73555 24.8637H8.35741V26.9183ZM13.22 24.7204C13.17 23.8715 13.4559 23.037 14.0161 22.3973C14.2801 22.12 14.5999 21.9019 14.9544 21.7573C15.3089 21.6127 15.69 21.5449 16.0726 21.5583C16.5951 21.5512 17.1095 21.6877 17.5597 21.9528C17.9973 22.2116 18.3486 22.5941 18.5692 23.0521C18.807 23.551 18.9258 24.0983 18.9162 24.6509C18.9262 25.2126 18.8013 25.7686 18.5518 26.272C18.3252 26.7302 17.9636 27.1078 17.5157 27.3539C17.0729 27.598 16.5749 27.7247 16.0692 27.7217C15.5401 27.7304 15.0193 27.59 14.5663 27.3165C14.1304 27.0522 13.7813 26.6663 13.5619 26.2063C13.3356 25.7437 13.2186 25.2353 13.22 24.7204ZM14.033 24.7329C13.9992 25.3527 14.2081 25.9613 14.6155 26.4297C14.7993 26.631 15.0242 26.7904 15.2748 26.8974C15.5255 27.0043 15.7962 27.0563 16.0687 27.0497C16.3428 27.0566 16.6151 27.0042 16.8671 26.8961C17.119 26.7879 17.3446 26.6265 17.5283 26.423C17.9394 25.926 18.1451 25.2908 18.1034 24.6471C18.1143 24.2114 18.0317 23.7783 17.8612 23.3771C17.7109 23.0312 17.4605 22.7381 17.1422 22.5358C16.8241 22.3359 16.4551 22.2322 16.0794 22.237C15.8132 22.233 15.5489 22.2817 15.3016 22.3804C15.0544 22.4791 14.8291 22.6258 14.6389 22.8121C14.4138 23.0748 14.2441 23.3803 14.14 23.7102C14.0359 24.0401 13.9995 24.3876 14.033 24.7319V24.7329ZM20.2089 27.6215V21.6641H20.997V26.9178H23.9306V27.6211L20.2089 27.6215ZM25.1938 27.6215V21.6641H29.5014V22.3672H25.9819V24.1922H29.2775V24.8912H25.9819V26.9184H29.6396V27.6217L25.1938 27.6215ZM32.5523 27.6215V22.3672H30.5887V21.6641H35.3106V22.3672H33.3399V27.6211L32.5523 27.6215ZM36.0375 24.7204C35.9882 23.8714 36.2749 23.037 36.8357 22.3977C37.0997 22.1204 37.4195 21.9023 37.7739 21.7577C38.1284 21.6131 38.5095 21.5452 38.8921 21.5587C39.4145 21.5516 39.9289 21.6881 40.3792 21.9532C40.8169 22.2119 41.1681 22.5944 41.3887 23.0525C41.6266 23.5514 41.7454 24.0987 41.7357 24.6513C41.7455 25.2131 41.6202 25.7691 41.3704 26.2724C41.1432 26.7314 40.7803 27.1093 40.331 27.3551C39.8882 27.5992 39.3902 27.7258 38.8845 27.7229C38.3551 27.7316 37.8339 27.5909 37.3808 27.3169C36.9458 27.0523 36.5975 26.6664 36.3788 26.2067C36.1527 25.7439 36.0359 25.2354 36.0375 24.7204ZM36.8506 24.7329C36.8168 25.3527 37.0257 25.9613 37.4331 26.4297C37.6169 26.631 37.8417 26.7904 38.0924 26.8974C38.3431 27.0043 38.6138 27.0563 38.8863 27.0497C39.1612 27.0575 39.4345 27.0056 39.6873 26.8975C39.9402 26.7894 40.1666 26.6278 40.351 26.4238C40.762 25.9268 40.9677 25.2915 40.926 24.6479C40.9345 24.2116 40.8494 23.7785 40.6763 23.3779C40.5259 23.032 40.2755 22.739 39.9573 22.5366C39.6394 22.3368 39.2706 22.2331 38.8951 22.2379C38.6289 22.2338 38.3646 22.2825 38.1173 22.3812C37.87 22.4799 37.6447 22.6266 37.4545 22.8129C37.2298 23.0756 37.0606 23.381 36.9568 23.7107C36.8531 24.0405 36.8169 24.3878 36.8506 24.7318V24.7329Z" fill="white"></path></g><defs><clipPath id="clip0_341_5757"><rect width="34.6755" height="19.7504" fill="white" transform="translate(7.05664 7.97266)"></rect></clipPath></defs></svg>