<svg xmlns="http://www.w3.org/2000/svg" width="300" height="55" viewBox="0 0 300 55" fill="none"><path d="M62.6562 2.88421H70.6414V4.37681H64.2894V7.08425L68.804 7.09095V8.54004H64.2894V13.4864H62.6562V2.88086V2.88421Z" fill="black"></path><path d="M83.2637 8.18939C83.2637 5.12051 85.6967 2.6875 88.9396 2.6875C92.1825 2.6875 94.6255 5.12051 94.6255 8.18939C94.6255 11.2583 92.1925 13.6913 88.9396 13.6913C85.6866 13.6913 83.2637 11.2482 83.2637 8.18939ZM92.989 8.19273C92.989 5.93374 91.2253 4.22026 88.9362 4.22026C86.6471 4.22026 84.8935 5.93374 84.8935 8.19273C84.8935 10.4517 86.6572 12.1552 88.9362 12.1552C91.2153 12.1552 92.989 10.4417 92.989 8.19273Z" fill="black"></path><path d="M115.292 13.4903L110.222 8.80833V13.4903H108.582V2.88477H113.558C115.874 2.88477 117.424 4.01927 117.424 6.08081C117.424 8.14234 116.005 9.22331 113.682 9.22331H112.799L117.645 13.4936H115.295L115.292 13.4903ZM110.219 7.79764H113.682C114.904 7.79764 115.744 7.25549 115.744 6.07747C115.744 4.89945 114.904 4.36064 113.682 4.36064H110.219V7.79764Z" fill="black"></path><path d="M133.055 5.9436V13.4903H131.422V2.88477H133.058L137.305 10.7594L141.602 2.88477H143.195V13.4903H141.562V5.96368L137.322 13.758L133.055 5.9436Z" fill="black"></path><path d="M162.195 2.45996L168.152 13.4972H166.389L165.16 11.1646H159.19L157.945 13.4972H156.145L162.195 2.45996ZM164.427 9.8025L162.175 5.54222L159.913 9.8025H164.427Z" fill="black"></path><path d="M186.281 13.6478L185.632 15.9201H183.965L184.822 13.611C182.057 13.2194 180.053 10.9872 180.053 8.19273C180.053 5.12051 182.496 2.71094 185.702 2.71094C187.425 2.71094 188.965 3.40034 190.063 4.59175L188.804 5.58236C187.998 4.71557 186.9 4.24705 185.695 4.24705C183.443 4.24705 181.679 5.91702 181.679 8.18939C181.679 10.4618 183.443 12.1418 185.695 12.1418C186.94 12.1418 188.018 11.6666 188.841 10.783L190.116 11.7502C189.119 12.8412 187.807 13.5139 186.281 13.6511V13.6478Z" fill="black"></path><path d="M208.168 2.45979L214.125 13.497H212.361L211.133 11.1644H205.163L203.918 13.497H202.117L208.168 2.45979ZM205.832 0.632511C207.576 -0.910293 208.489 1.342 210.049 0L210.447 1.09435C208.59 2.62377 207.753 0.411641 206.267 1.76034L205.832 0.632511ZM210.403 9.80233L208.151 5.54204L205.889 9.80233H210.403Z" fill="black"></path><path d="M225.977 8.18939C225.977 5.12051 228.41 2.6875 231.652 2.6875C234.895 2.6875 237.338 5.12051 237.338 8.18939C237.338 11.2583 234.905 13.6913 231.652 13.6913C228.4 13.6913 225.977 11.2482 225.977 8.18939ZM235.702 8.19273C235.702 5.93374 233.938 4.22026 231.649 4.22026C229.36 4.22026 227.606 5.93374 227.606 8.19273C227.606 10.4517 229.37 12.1552 231.649 12.1552C233.928 12.1552 235.702 10.4417 235.702 8.19273Z" fill="black"></path><path d="M0.846701 50.3666V32.3282L0 28.5498H7.86462L7.05473 32.3282V50.3666L7.86462 54.1449H0L0.846701 50.3666Z" fill="black"></path><path d="M40.4304 28.5469L39.5837 32.3252V54.142H31.2205L21.0835 33.8279L21.1605 50.3269L21.9703 54.142H15.2637L16.1104 50.3269V32.3252L15.2637 28.5469H24.477L34.614 48.861L34.537 32.3252L33.7271 28.5469H40.4338H40.4304Z" fill="black"></path><path d="M48.3291 53.5259L47.3652 47.2443L52.1442 49.8647C54.2627 50.4437 55.9226 50.7114 57.6963 50.7114C60.8957 50.7114 62.4753 49.5535 62.4753 47.6258C62.4753 45.6981 61.2806 44.7343 56.7325 43.5797C50.3337 41.9599 47.5192 39.7244 47.5192 35.3704C47.5192 31.0164 50.9897 27.8906 58.041 27.8906C61.3174 27.8906 64.0918 28.2755 67.0234 28.9716L67.9471 35.0223L63.322 32.6696C61.7424 32.2078 60.2398 32.0137 58.543 32.0137C55.6917 32.0137 53.841 33.0545 53.841 34.7881C53.841 36.5216 54.8416 37.6026 59.4299 38.7572C66.0228 40.4138 68.834 42.7665 68.834 47.0067C68.834 51.6719 65.0188 54.8311 58.041 54.7943C53.6101 54.7943 50.5646 54.0246 48.3291 53.5226V53.5259Z" fill="black"></path><path d="M76.2724 53.5259L75.3086 47.2443L80.0876 49.8647C82.206 50.4437 83.866 50.7114 85.6397 50.7114C88.8391 50.7114 90.4187 49.5535 90.4187 47.6258C90.4187 45.6981 89.224 44.7343 84.6759 43.5797C78.2771 41.9599 75.4625 39.7244 75.4625 35.3704C75.4625 31.0164 78.933 27.8906 85.9844 27.8906C89.2608 27.8906 92.0351 28.2755 94.9668 28.9716L95.8905 35.0223L91.2654 32.6696C89.6858 32.2078 88.1831 32.0137 86.4864 32.0137C83.6351 32.0137 81.7844 33.0545 81.7844 34.7881C81.7844 36.5216 82.785 37.6026 87.3733 38.7572C93.9662 40.4138 96.7773 42.7665 96.7773 47.0067C96.7773 51.6719 92.9622 54.8311 85.9844 54.7943C81.5534 54.7943 78.508 54.0246 76.2724 53.5226V53.5259Z" fill="black"></path><path d="M119.191 36.7228H116.986V45.6015H119.151C121.761 45.6015 122.933 44.4904 122.933 41.1705C122.933 37.8507 121.798 36.7195 119.191 36.7195V36.7228ZM105.814 32.3488V50.3437C105.814 52.1375 107.267 53.5899 109.061 53.5899H144.99C146.784 53.5899 148.237 52.1375 148.237 50.3437V32.3488C148.237 30.555 146.784 29.1025 144.99 29.1025H109.061C107.267 29.1025 105.814 30.555 105.814 32.3488ZM119.01 47.8906H113.328L113.773 45.9094V36.4417L113.328 34.4605H119.01C124.047 34.4605 126.293 36.5622 126.293 41.1772C126.293 45.7922 124.047 47.8939 119.01 47.8939V47.8906ZM140.328 47.8906H129.485L129.93 45.9094V36.4417L129.485 34.4605H140.124L140.549 37.2315L138.548 36.7061H133.147V39.9825H137.029L138.444 39.698V42.4289L137.029 42.1444H133.147V45.645H138.749L140.733 45.1196L140.328 47.8906Z" fill="black"></path><path d="M156.299 41.328C156.299 32.7539 161.198 27.8945 169.311 27.8945C177.423 27.8945 182.286 32.7539 182.286 41.328C182.286 49.9021 177.349 54.7982 169.311 54.7982C161.272 54.7982 156.299 49.8619 156.299 41.328ZM175.857 41.328C175.857 35.0129 173.33 32.4092 169.311 32.4092C165.291 32.4092 162.691 35.0129 162.691 41.328C162.691 47.6431 165.254 50.2468 169.237 50.2468C173.219 50.2468 175.857 47.6063 175.857 41.328Z" fill="black"></path><path d="M190.126 50.2432V32.3688L189.283 28.6172H202.412C208.419 28.6172 210.869 31.3715 210.869 35.5046C210.869 38.2589 209.49 40.0192 206.504 40.8626C210.484 41.6657 212.589 43.9247 212.589 46.9099C212.589 51.274 209.603 54.0283 203.057 54.0283H189.279L190.123 50.2399L190.126 50.2432ZM200.153 39.1056C203.329 39.1056 204.898 38.0346 204.898 35.9664C204.898 33.8982 203.75 32.6733 200.688 32.6733H196.096V39.1022H200.153V39.1056ZM201.876 49.9387C204.938 49.9387 206.126 48.6368 206.126 46.418C206.126 44.1992 204.366 43.0111 201.381 43.0111H196.1V49.9387H201.879H201.876Z" fill="black"></path><path d="M243.97 54.0316H235.396L234.861 50.9326L230.614 44.5405H226.327V50.2432L227.207 54.0316H219.322L220.166 50.2432V32.3688L219.322 28.6172H232.525C239.067 28.6172 241.939 31.3715 241.939 36.4249C241.939 39.7916 240.179 42.3552 236.427 43.3893L243.967 54.0283L243.97 54.0316ZM231.076 40.2936C234.138 40.2936 235.898 39.1089 235.898 36.5052C235.898 33.9015 234.637 32.6767 231.574 32.6767H226.18V40.2936H231.079H231.076Z" fill="black"></path><path d="M274.509 54.0312H266.892L266.547 50.7414L265.971 49.2857H254.874L254.302 50.7414L253.957 54.0312H247.451L257.133 31.0297L256.139 28.6201H263.947L274.509 54.0312ZM264.328 45.1927L260.463 35.5477L256.561 45.1927H264.332H264.328Z" fill="black"></path><path d="M279.635 53.4229L278.678 47.1848L283.423 49.7885C285.528 50.3607 287.175 50.6318 288.935 50.6318C292.111 50.6318 293.681 49.4839 293.681 47.5696C293.681 45.6554 292.496 44.6982 287.978 43.5503C281.626 41.9439 278.832 39.7218 278.832 35.3979C278.832 31.074 282.275 27.9717 289.28 27.9717C292.533 27.9717 295.287 28.3532 298.199 29.0426L299.119 35.0498L294.527 32.7139C292.958 32.2554 291.465 32.0646 289.782 32.0646C286.951 32.0646 285.113 33.0987 285.113 34.8189C285.113 36.5391 286.107 37.6134 290.662 38.7613C297.205 40.4078 299.999 42.7404 299.999 46.9505C299.999 51.5823 296.211 54.7181 289.283 54.6813C284.882 54.6813 281.857 53.9149 279.638 53.4196L279.635 53.4229Z" fill="black"></path></svg>