<svg xmlns="http://www.w3.org/2000/svg" width="261" height="48" viewBox="0 0 261 48" fill="none"><path d="M54.5449 2.49997H61.4643V3.79337H55.9601V6.13947L59.8722 6.14528V7.40098H55.9601V11.6872H54.5449V2.49707V2.49997Z" fill="white"></path><path d="M72.4023 7.09622C72.4023 4.43692 74.5106 2.32861 77.3207 2.32861C80.1308 2.32861 82.2478 4.43692 82.2478 7.09622C82.2478 9.75552 80.1395 11.8638 77.3207 11.8638C74.5019 11.8638 72.4023 9.74682 72.4023 7.09622ZM80.8298 7.09911C80.8298 5.14161 79.3014 3.65681 77.3178 3.65681C75.3342 3.65681 73.8146 5.14161 73.8146 7.09911C73.8146 9.05661 75.3429 10.5327 77.3178 10.5327C79.2927 10.5327 80.8298 9.04791 80.8298 7.09911Z" fill="white"></path><path d="M100.154 11.6901L95.7608 7.63301V11.6901H94.3398V2.5H98.6521C100.659 2.5 102.002 3.4831 102.002 5.2695C102.002 7.0559 100.772 7.99261 98.7594 7.99261H97.9938L102.193 11.693H100.157L100.154 11.6901ZM95.7579 6.7572H98.7594C99.8179 6.7572 100.546 6.28741 100.546 5.2666C100.546 4.2458 99.8179 3.7789 98.7594 3.7789H95.7579V6.7572Z" fill="white"></path><path d="M115.55 5.15061V11.6901H114.135V2.5H115.553L119.233 9.32371L122.957 2.5H124.337V11.6901H122.922V5.16801L119.247 11.9221L115.55 5.15061Z" fill="white"></path><path d="M140.8 2.13184L145.962 11.696H144.434L143.369 9.67474H138.196L137.117 11.696H135.557L140.8 2.13184ZM142.734 8.49444L140.782 4.80274L138.822 8.49444H142.734Z" fill="white"></path><path d="M161.67 11.8268L161.108 13.7959H159.664L160.406 11.7949C158.011 11.4556 156.273 9.52131 156.273 7.09981C156.273 4.4376 158.39 2.34961 161.169 2.34961C162.662 2.34961 163.996 2.94701 164.947 3.97941L163.857 4.83781C163.158 4.08671 162.207 3.68071 161.163 3.68071C159.211 3.68071 157.683 5.12781 157.683 7.09691C157.683 9.06601 159.211 10.5218 161.163 10.5218C162.242 10.5218 163.175 10.11 163.889 9.34441L164.994 10.1825C164.13 11.1279 162.993 11.7108 161.67 11.8297V11.8268Z" fill="white"></path><path d="M180.636 2.1315L185.798 11.6957H184.269L183.205 9.6744H178.032L176.953 11.6957H175.393L180.636 2.1315ZM178.612 0.548096C180.122 -0.788805 180.914 1.1629 182.266 0L182.611 0.948297C181.001 2.2736 180.276 0.356703 178.989 1.5254L178.612 0.548096ZM182.573 8.49411L180.621 4.8024L178.661 8.49411H182.573Z" fill="white"></path><path d="M196.068 7.09622C196.068 4.43692 198.177 2.32861 200.987 2.32861C203.797 2.32861 205.914 4.43692 205.914 7.09622C205.914 9.75552 203.806 11.8638 200.987 11.8638C198.168 11.8638 196.068 9.74682 196.068 7.09622ZM204.496 7.09911C204.496 5.14161 202.967 3.65681 200.984 3.65681C199 3.65681 197.481 5.14161 197.481 7.09911C197.481 9.05661 199.009 10.5327 200.984 10.5327C202.959 10.5327 204.496 9.04791 204.496 7.09911Z" fill="white"></path><path d="M0.9837 43.6449V28.0138L0.25 24.7397H7.06501L6.3632 28.0138V43.6449L7.06501 46.919H0.25L0.9837 43.6449Z" fill="white"></path><path d="M35.2846 24.7373L34.5509 28.0114V46.9165H27.3038L18.5197 29.3135L18.5864 43.6105L19.2882 46.9165H13.4766L14.2103 43.6105V28.0114L13.4766 24.7373H21.4603L30.2444 42.3403L30.1777 28.0114L29.4759 24.7373H35.2875H35.2846Z" fill="white"></path><path d="M42.1301 46.383L41.2949 40.9397L45.4361 43.2104C47.2718 43.7121 48.7102 43.9441 50.2472 43.9441C53.0196 43.9441 54.3884 42.9407 54.3884 41.2703C54.3884 39.5999 53.3531 38.7647 49.412 37.7642C43.8672 36.3606 41.4283 34.4234 41.4283 30.6505C41.4283 26.8776 44.4356 24.1689 50.5459 24.1689C53.385 24.1689 55.7891 24.5025 58.3295 25.1057L59.1299 30.3489L55.1221 28.3102C53.7533 27.91 52.4512 27.7418 50.9809 27.7418C48.5101 27.7418 46.9064 28.6437 46.9064 30.1459C46.9064 31.6481 47.7735 32.5848 51.7494 33.5853C57.4624 35.0208 59.8984 37.0595 59.8984 40.7338C59.8984 44.7764 56.5924 47.514 50.5459 47.4821C46.7063 47.4821 44.0673 46.8151 42.1301 46.3801V46.383Z" fill="white"></path><path d="M66.345 46.383L65.5098 40.9397L69.651 43.2104C71.4867 43.7121 72.9251 43.9441 74.4621 43.9441C77.2345 43.9441 78.6033 42.9407 78.6033 41.2703C78.6033 39.5999 77.568 38.7647 73.6269 37.7642C68.0821 36.3606 65.6432 34.4234 65.6432 30.6505C65.6432 26.8776 68.6505 24.1689 74.7608 24.1689C77.5999 24.1689 80.004 24.5025 82.5444 25.1057L83.3448 30.3489L79.337 28.3102C77.9682 27.91 76.6661 27.7418 75.1958 27.7418C72.725 27.7418 71.1213 28.6437 71.1213 30.1459C71.1213 31.6481 71.9884 32.5848 75.9643 33.5853C81.6773 35.0208 84.1133 37.0595 84.1133 40.7338C84.1133 44.7764 80.8073 47.514 74.7608 47.4821C70.9212 47.4821 68.2822 46.8151 66.345 46.3801V46.383Z" fill="white"></path><path d="M103.535 31.8216H101.624V39.5153H103.5C105.762 39.5153 106.777 38.5525 106.777 35.6757C106.777 32.7989 105.794 31.8187 103.535 31.8187V31.8216ZM91.9434 28.0312V43.6246C91.9434 45.179 93.202 46.4376 94.7564 46.4376H125.891C127.445 46.4376 128.704 45.179 128.704 43.6246V28.0312C128.704 26.4768 127.445 25.2183 125.891 25.2183H94.7564C93.202 25.2183 91.9434 26.4768 91.9434 28.0312ZM103.378 41.4989H98.4539L98.8396 39.7821V31.578L98.4539 29.8612H103.378C107.743 29.8612 109.688 31.6824 109.688 35.6815C109.688 39.6806 107.743 41.5018 103.378 41.5018V41.4989ZM121.851 41.4989H112.455L112.841 39.7821V31.578L112.455 29.8612H121.674L122.042 32.2624L120.308 31.8071H115.628V34.6462H118.992L120.218 34.3997V36.7661L118.992 36.5196H115.628V39.553H120.482L122.202 39.0977L121.851 41.4989Z" fill="white"></path><path d="M135.689 35.8125C135.689 28.3827 139.935 24.1719 146.965 24.1719C153.994 24.1719 158.208 28.3827 158.208 35.8125C158.208 43.2423 153.93 47.485 146.965 47.485C139.999 47.485 135.689 43.2075 135.689 35.8125ZM152.637 35.8125C152.637 30.3402 150.448 28.084 146.965 28.084C143.482 28.084 141.228 30.3402 141.228 35.8125C141.228 41.2848 143.45 43.541 146.901 43.541C150.352 43.541 152.637 41.2529 152.637 35.8125Z" fill="white"></path><path d="M165.001 43.5377V28.0487L164.27 24.7979H175.647C180.853 24.7979 182.975 27.1845 182.975 30.766C182.975 33.1527 181.781 34.6781 179.194 35.4089C182.642 36.105 184.466 38.0625 184.466 40.6493C184.466 44.4309 181.879 46.8176 176.207 46.8176H164.268L164.998 43.5348L165.001 43.5377ZM173.69 33.8864C176.442 33.8864 177.802 32.9584 177.802 31.1662C177.802 29.374 176.807 28.3127 174.154 28.3127H170.175V33.8835H173.69V33.8864ZM175.183 43.2738C177.837 43.2738 178.866 42.1457 178.866 40.223C178.866 38.3003 177.341 37.2708 174.754 37.2708H170.178V43.2738H175.186H175.183Z" fill="white"></path><path d="M211.661 46.8205H204.231L203.767 44.1351L200.087 38.596H196.372V43.5377L197.135 46.8205H190.303L191.034 43.5377V28.0487L190.303 24.7979H201.743C207.413 24.7979 209.901 27.1845 209.901 31.5635C209.901 34.4809 208.376 36.7024 205.125 37.5985L211.658 46.8176L211.661 46.8205ZM200.488 34.916C203.141 34.916 204.666 33.8894 204.666 31.6332C204.666 29.377 203.573 28.3156 200.92 28.3156H196.245V34.916H200.49H200.488Z" fill="white"></path><path d="M238.124 46.8205H231.524L231.225 43.9698L230.726 42.7083H221.11L220.614 43.9698L220.315 46.8205H214.678L223.067 26.8888L222.206 24.8008H228.972L238.124 46.8205ZM229.302 39.1616L225.953 30.8038L222.572 39.1616H229.305H229.302Z" fill="white"></path><path d="M242.568 46.2928L241.738 40.8872L245.85 43.1434C247.675 43.6393 249.101 43.8742 250.627 43.8742C253.379 43.8742 254.739 42.8795 254.739 41.2207C254.739 39.5619 253.712 38.7325 249.797 37.7378C244.293 36.3458 241.872 34.4202 241.872 30.6734C241.872 26.9266 244.856 24.2383 250.925 24.2383C253.744 24.2383 256.131 24.5689 258.654 25.1663L259.452 30.3718L255.473 28.3476C254.113 27.9503 252.819 27.785 251.36 27.785C248.907 27.785 247.315 28.6811 247.315 30.1717C247.315 31.6623 248.176 32.5932 252.123 33.5879C257.793 35.0147 260.214 37.036 260.214 40.6842C260.214 44.6978 256.931 47.4151 250.928 47.3832C247.115 47.3832 244.493 46.7191 242.571 46.2899L242.568 46.2928Z" fill="white"></path></svg>